<?xml version="1.0" encoding="utf-8"?>
<!-- Generator: Adobe Illustrator 24.3.0, SVG Export Plug-In . SVG Version: 6.00 Build 0)  -->
<svg version="1.1" id="圖層_1" xmlns="http://www.w3.org/2000/svg" xmlns:xlink="http://www.w3.org/1999/xlink" x="0px" y="0px"
	 viewBox="0 0 1219.9 450" style="enable-background:new 0 0 1219.9 450;" xml:space="preserve">
<style type="text/css">
	.st0{display:none;fill:#003570;}
	.st1{fill:#A67C52;}
	.st2{fill:#FFFFFF;}
	.st3{enable-background:new    ;}
	.st4{fill:#231815;}
	.st5{fill:#DC551E;}
	.st6{fill:#F09614;}
	.st7{fill:#378264;}
</style>
<g id="圖層_2_00000109722727618649968420000016655216062987179694_">
</g>
<rect x="-15" y="-195.7" class="st0" width="1280" height="720"/>
<polygon class="st1" points="1134.2,31.5 991.9,422.6 1219.9,422.6 1219.9,31.5 "/>
<rect x="930.8" y="52.5" class="st2" width="272.8" height="349.2"/>
<g class="st3">
	<path class="st4" d="M1015.2,204.9c-0.6,2.2-1.3,4.3-2.2,6.3h4.3v-7.7h5.3v7.7h4.7v3.8c0.2-0.4,0.4-0.9,0.5-1.4
		c0.9-2.6,1.6-6,2.1-10.2l5.4,0.5c-0.3,2-0.5,3.9-0.9,5.6h8.2v5.3h-1.3c-0.2,6.7-1.3,12.2-3.2,16.5c-0.4,0.7-0.7,1.4-1,2
		c1.5,1.9,3.6,3.7,6.2,5.5l-3.3,5.3c-2.4-2.2-4.4-4.3-5.9-6.3c-1.8,2.2-3.9,4.2-6.3,6.2l-2.6-4h-7.3v2.1h-4.9v-19h4.2v-7h-4.7v-3.9
		c-0.5,1.1-0.9,2.1-1.4,3V244h-5.1v-20.6c-0.8,1.1-1.6,2.1-2.4,3l-2.1-6.3c3.8-4.5,6.5-10,8.2-16.7L1015.2,204.9z M1022.1,235.2
		v-7.4h-4v7.4H1022.1z M1024.2,221c1-1.6,1.9-3.2,2.7-4.9h-4.2v7h2.9L1024.2,221z M1031.4,233c-1.2-2.5-2-5.4-2.4-8.7
		c-0.5,0.8-0.9,1.5-1.3,2.2l-0.5-0.9v12.1C1028.7,236.2,1030.1,234.7,1031.4,233z M1034.2,227.9c1.3-3.2,1.9-7.1,1.9-11.6v-1.4h-2.9
		c-0.3,0.8-0.5,1.5-0.8,2.2c-0.2,0.5-0.3,0.8-0.5,1.2C1032.5,222,1033.2,225.3,1034.2,227.9z"/>
	<path class="st4" d="M1063.1,207c-1.7,4.6-3.8,8.7-6.4,12.3h21.4c-0.6-0.9-1.2-1.8-1.7-2.7c-1.3-2.2-2.2-4.4-3-6.4h-9v-5.4h13.9
		c0.7,3.6,1.9,6.6,3.6,9.1c1.8,2.6,4.2,5.1,7.3,7.4l-5.6,4.9c-0.9-0.9-1.8-1.9-2.6-2.8l-0.1,5.3c-0.3,7.2-1.2,11.5-2.9,13.2
		c-1.4,1.4-3.8,2.1-7.3,2.1h-4l-1.4-6.2c3,0.3,4.8,0.4,5.4,0.4c1.5,0,2.6-0.4,3.1-1.2c0.7-1.2,1.1-4.1,1.2-8.9l0.1-3.3h-8.1
		c-1.1,5.3-2.8,9.5-5.2,12.4c-2.5,3-5.6,5.3-9.2,6.9l-3.4-5.3c2.9-0.8,5.4-2.5,7.6-5c1.8-2,3.1-5,3.9-9h-5.9v-3.1
		c-1.3,1.5-2.6,3-4,4.3l-3.6-5.4c4.2-3.6,7.3-8.5,9.3-14.6L1063.1,207z"/>
	<path class="st4" d="M1099.1,211v-7.2h5.4v7.2h5.1v5.1h-5.1v3c2.7,1.9,4.6,3.5,6,4.9l-3.2,5.1c-0.8-1.3-1.8-2.6-2.8-3.8v18.8h-5.4
		v-18.3c-1.5,4-3.4,7.6-5.6,10.9l-2.1-7.2c3.3-4.1,5.7-8.6,6.9-13.4h-5.4V211H1099.1z M1132.3,208.6c-5.1,1.9-10.4,3-15.8,3.4v5
		h16.4v5.3h-4.8v21.8h-5.6v-21.8h-6v0.7c-0.1,4.6-0.5,8.4-1.3,11.5c-0.7,3.3-2.1,6.6-4.1,10l-4.9-4.8c3.2-4.1,4.8-9.7,4.9-16.7
		v-16.2c6.5-0.1,12.7-1.3,18.8-3.4L1132.3,208.6z"/>
</g>
<g>
	<g>
		<path class="st1" d="M958.4,275.8c-0.6,1.3-1.3,2.4-2,3.2v9.7h-1.9V281c-0.5,0.5-1,0.9-1.6,1.4l-0.6-2.1c0.9-0.7,1.7-1.4,2.4-2.2
			c0.7-0.7,1.4-1.7,2.1-3L958.4,275.8z M958.6,270.6c-0.8,1.1-1.4,1.9-2.1,2.5c-0.8,0.7-1.8,1.4-3,2.1l-1-1.7
			c0.9-0.4,1.7-0.9,2.6-1.7c0.6-0.5,1.2-1.3,1.9-2.2L958.6,270.6z M969.8,270c-0.3,1.2-0.6,2.2-0.9,3c0.9,0.6,1.8,1.2,2.8,1.9
			l-1.2,1.8c-0.9-0.9-1.7-1.6-2.2-2.1c-0.5,0.8-1.1,1.7-1.9,2.6h0.1v2.9h4.3v1.9h-4.3v4.7c0.6,0.1,1.3,0.1,2.1,0.1
			c1.1,0,2.2-0.1,3.4-0.2l-0.3,2.1c-3.9,0-6.4-0.2-7.5-0.6c-0.9-0.2-1.7-0.8-2.6-1.7c-0.4-0.4-0.8-0.9-1.1-1.4
			c-0.5,1.2-1.2,2.4-2,3.6l-1.5-1.3c1-1.7,1.7-3.2,2.2-4.6c0.4-1.1,0.7-2.6,0.8-4.5l1.9,0.2c-0.2,1.8-0.4,3.2-0.7,4.2
			c0.5,1.2,1,2.1,1.8,2.6c0.4,0.4,0.9,0.7,1.4,0.9V277h1.4l-1.2-1.5c0.9-0.9,1.6-1.8,2-2.7c0.4-0.8,0.8-2,1.1-3.4L969.8,270z
			 M963.4,270c-0.3,1-0.5,1.9-0.8,2.6c0.8,0.6,1.6,1.2,2.4,1.9l-1.2,1.9c-0.8-0.9-1.5-1.7-2-2.1c-0.5,0.9-1.3,1.8-2.2,2.7l-1.3-1.6
			c1-0.8,1.7-1.7,2.2-2.5s0.9-1.8,1.2-3.1L963.4,270z"/>
		<path class="st1" d="M978.5,270.6v-1h1.6v1h3.8v2.4h1.2v1.4h-1.2v2.5h-3.8v1h3.5l-0.1-0.1c0.9-1.2,1.6-2.4,2-3.6
			c0.4-1.1,0.8-2.6,1.1-4.5l1.8,0.3c-0.2,1.1-0.4,2.1-0.6,2.9h4.7v1.7h-1.2c-0.2,3.9-0.7,6.8-1.4,8.7c-0.1,0.2-0.2,0.4-0.3,0.6
			c0.7,1,1.7,2.1,3,3.1l-1,1.8c-1.3-1-2.3-2.1-3.1-3.2c-0.8,1.2-1.9,2.2-3.1,3.2l-1.2-1.5c1.4-1,2.5-2.1,3.3-3.3
			c-0.8-1.5-1.4-3.5-2-6.1c-0.3,0.5-0.6,0.9-0.9,1.3l-0.8-0.9v3.1H980c-0.3,0.4-0.5,0.7-0.7,1h5.6v1.5h-1.7c-0.5,1-1.1,1.8-1.7,2.4
			c0.8,0.3,1.5,0.7,2.4,1.1l-1.1,1.4c-0.8-0.5-1.7-1-2.7-1.4c-1.5,0.9-3.4,1.4-5.6,1.4l-0.9-1.5c2.1,0,3.7-0.2,4.7-0.7
			c-1.1-0.4-2.2-0.8-3.4-1.1c0.4-0.5,0.9-1,1.3-1.6h-2.7v-1.5h3.7c0.2-0.3,0.5-0.7,0.7-1h-3.3v-3.6h3.7v-1h-3.8v-2.5h-1.2v-1.4h1.2
			v-2.4h4V270.6z M978.5,272.9v-1h-2.1v1H978.5z M978.5,274.3h-2.1v1.2h2.1V274.3z M978.5,279.1h-2.1v1.1h2.1V279.1z M981.4,283.9
			h-3.1c-0.3,0.4-0.5,0.7-0.8,1c0.8,0.2,1.6,0.5,2.5,0.8C980.5,285.1,981,284.6,981.4,283.9z M980.1,272.9h2.1v-1h-2.1V272.9z
			 M982.3,274.3h-2.1v1.2h2.1V274.3z M982.4,279.1h-2.3v1.1h2.3V279.1z M988.6,282.1c0.5-1.6,0.9-4.1,1-7.5h-2.4
			c0,0.1-0.1,0.2-0.1,0.3c-0.1,0.3-0.2,0.6-0.3,0.8C987.4,278.5,987.9,280.7,988.6,282.1z"/>
		<path class="st1" d="M996.7,273.4v-3.8h1.8v3.8h1.8v1.6h-1.8v4.1c0.6-0.3,1.2-0.7,1.8-1.2v2c-0.6,0.4-1.2,0.8-1.8,1.2v5.6
			c0,0.7-0.2,1.2-0.5,1.5s-0.8,0.5-1.6,0.5h-1.1l-0.4-2c0.4,0.1,0.8,0.2,1.1,0.2c0.5,0,0.7-0.2,0.7-0.5V282
			c-0.6,0.3-1.3,0.5-1.9,0.7l-0.3-2.1c0.7-0.1,1.4-0.3,2.1-0.6v-5h-2.1v-1.6H996.7z M1007.2,269.6v0.9h5.2v1.3h-5.2v1h6.5
			c-0.3,1.3-0.7,2.6-1.3,3.9l-1.9-0.5c0.4-0.5,0.7-1.2,1-1.9h-4.6v1l3.2-0.4l0.2,1.3l-3.4,0.4c0,0.3,0.3,0.5,0.8,0.5h4.8v1.4h-5.3
			c-0.6,0-1.1-0.1-1.5-0.3s-0.5-0.6-0.5-1.1v-0.2l-2.2,0.3l-0.2-1.3l2.4-0.3v-1.3h-2.6v3.9c0,1.6-0.1,3.3-0.4,5.1
			c-0.3,1.8-0.8,3.7-1.4,5.5l-1.5-1.3c0.6-1.5,1-3,1.3-4.6c0.2-1.7,0.3-3.2,0.3-4.6V273h4.6v-3.2h1.7V269.6z M1013.3,279.3v1.5h-4.7
			c-0.1,0.1-0.3,0.3-0.4,0.3c0.4,0.5,0.8,1,1.1,1.4c1-0.3,2-0.8,2.9-1.5l1.1,1.1c-0.5,0.3-1.1,0.6-1.7,0.9c0.3,0.7,0.6,1.4,1,2
			s0.9,1.2,1.6,1.9l-1.1,1.4c-0.8-0.9-1.4-1.7-1.9-2.6c-0.4-0.6-0.7-1.4-0.9-2.2c-0.2,0.1-0.4,0.1-0.5,0.2c0.3,0.8,0.4,1.6,0.4,2.3
			c0,1-0.2,1.7-0.5,2.2c-0.4,0.5-1.4,0.7-3.2,0.7l-0.5-1.6c0,0,0.3,0.1,0.9,0.1c0.6,0,1-0.1,1.2-0.2c0.2-0.2,0.3-0.6,0.3-1.2
			c0-0.1,0-0.3,0-0.4c-0.7,0.5-1.2,0.8-1.8,1.1c-1,0.5-2.2,1-3.6,1.4l-0.8-1.4c1.4-0.4,2.7-0.8,3.8-1.3c0.8-0.4,1.5-0.8,2.1-1.3
			c0-0.1-0.1-0.3-0.1-0.4s-0.1-0.2-0.1-0.3c-0.6,0.4-1.1,0.7-1.6,0.9c-0.8,0.4-1.9,0.8-3.2,1.2l-0.7-1.2c1.3-0.3,2.4-0.7,3.3-1.1
			c0.6-0.3,1.1-0.5,1.6-0.9c-0.1-0.1-0.2-0.3-0.3-0.5c-1.1,0.6-2.4,1.1-3.8,1.5l-0.7-1.3c1.4-0.3,2.6-0.7,3.4-1
			c0.3-0.1,0.5-0.2,0.7-0.3h-3.6v-1.5L1013.3,279.3L1013.3,279.3z"/>
		<path class="st1" d="M1025.6,271.5c-1,0.5-2.3,0.8-3.6,1v2.7h3.9v1.8h-3.9v0.4c1.2,1.1,2.5,2.3,3.8,3.7l-1.2,1.8
			c-1-1.3-1.8-2.4-2.5-3.2v9.1h-1.9v-9.4c-1,2.3-2.1,4.2-3.4,5.8l-1.2-1.8c1.7-1.8,3-3.9,4-6.3h-3.7v-1.8h4.3v-2.5
			c-1.1,0.1-2.3,0.2-3.5,0.2l-0.6-1.7c3.4,0,6.3-0.5,8.7-1.4L1025.6,271.5z M1034.1,288.1h-1.9v-1.6h-3.7v1.9h-1.9V271h7.5V288.1z
			 M1032.2,284.7v-12.1h-3.7v12.1H1032.2z"/>
		<path class="st1" d="M1055.2,288.7h-1.8V288h-14.5v0.7h-1.8v-18.6h18.1L1055.2,288.7L1055.2,288.7z M1053.4,286.5v-14.8h-14.5
			v14.8H1053.4z M1051.7,272.4v3.3h-4.7v0.9h6.1v1.3h-13.8v-1.3h5.9v-0.9h-4.6v-3.3H1051.7z M1051.9,278.8v6.8h-11.4v-6.8H1051.9z
			 M1050.2,280h-8v4.3h8V280z M1050,273.6h-7.7v1h7.7V273.6z M1048.9,280.7v2.8h-5.4v-2.8H1048.9z M1047.5,281.6h-2.6v1h2.6V281.6z"
			/>
		<path class="st1" d="M1066.1,271.1v-1.6h2v1.6h7.9v1.7h-7.9v1.6h7.1v1.6h-7.1v1.8h8.7v1.8h-7.5c0.8,1.4,1.4,2.4,2.1,3.2
			c0.4-0.2,0.7-0.5,1-0.8c0.4-0.4,0.9-0.9,1.3-1.6l1.6,0.9c-0.5,0.8-1,1.5-1.5,1.9c-0.3,0.3-0.7,0.6-1.1,0.9c1,0.9,2.3,1.8,3.9,2.6
			l-0.9,2c-2.4-1.4-4.2-2.8-5.3-4.1c-1-1-2-2.7-3.1-5h-0.8c-0.4,0.6-0.8,1.1-1.2,1.5v4.8c1.2-0.3,2.5-0.7,3.8-1.1v1.9
			c-2.6,0.8-5.5,1.5-8.6,2l-0.3-2c1-0.1,2-0.2,3-0.4V283c-1.2,0.9-2.8,1.8-4.8,2.8l-1.1-1.9c2.1-0.8,3.7-1.6,4.8-2.4
			c0.8-0.5,1.5-1.1,2.1-1.7h-6.8V278h8.6v-1.8h-7v-1.6h7V273h-7.9v-1.7h8V271.1z"/>
		<path class="st1" d="M1081,273.4v-3.8h1.9v3.8h2v1.7h-2v4c0.6-0.3,1.2-0.7,1.9-1.2v2.1c-0.6,0.4-1.2,0.8-1.9,1.2v5.6
			c0,0.7-0.2,1.2-0.5,1.5s-0.8,0.5-1.6,0.5h-1.5l-0.4-2c0.5,0.1,1,0.2,1.4,0.2c0.5,0,0.7-0.2,0.7-0.5v-4.3c-0.7,0.3-1.5,0.6-2.2,0.8
			l-0.3-2.1c0.8-0.1,1.6-0.4,2.5-0.7v-4.9h-2.4v-1.7h2.4V273.4z M1090.7,274.1c-0.3,1.3-0.8,2.3-1.5,3c-0.6,0.6-1.7,1.2-3.3,1.6
			l-1-1.6c1.4-0.4,2.4-0.8,2.9-1.3c0.5-0.4,0.8-1.1,1.1-2.1L1090.7,274.1z M1092.2,271.4h5.1v3.8h-1.9V273h-8.1v2.1h-1.9v-3.8h4.8
			c-0.2-0.5-0.4-1.1-0.6-1.6l2.1-0.2C1091.8,270.1,1092,270.7,1092.2,271.4z M1095.5,279v1.8c-5,3-7.4,4.5-7.4,4.5
			c-0.3,0.2-0.5,0.4-0.5,0.6c0,0.3,0.2,0.5,0.5,0.5h6.4c0.3,0,0.5-0.1,0.7-0.4c0.1-0.1,0.3-1,0.4-2.7l1.8,0.6
			c-0.2,2.2-0.5,3.4-0.9,3.8s-1.1,0.5-2,0.5h-6.4c-0.9,0-1.6-0.2-1.9-0.5c-0.4-0.4-0.6-1-0.6-1.7c0-0.5,0.1-0.9,0.4-1.2
			c0.2-0.3,2.3-1.7,6.4-4.1h-6V279H1095.5z M1093.6,273.9v1.9c0,0.4,0.2,0.6,0.7,0.6h3.1v1.6h-3.6c-0.7,0-1.2-0.1-1.6-0.4
			s-0.6-0.7-0.6-1.2v-2.5H1093.6z"/>
		<path class="st1" d="M1102,273.4v-3.8h1.9v3.8h2v1.7h-2v4c0.6-0.3,1.2-0.7,1.9-1.2v2.1c-0.6,0.4-1.2,0.8-1.9,1.2v5.6
			c0,0.7-0.2,1.2-0.5,1.5s-0.8,0.5-1.6,0.5h-1.5l-0.4-2c0.5,0.1,1,0.2,1.4,0.2c0.5,0,0.7-0.2,0.7-0.5v-4.3c-0.7,0.3-1.5,0.6-2.2,0.8
			l-0.3-2.1c0.8-0.1,1.6-0.4,2.5-0.7v-4.9h-2.3v-1.7h2.3V273.4z M1108,282c-0.4,2.3-1,4.6-2,6.9l-1.6-1.5c0.9-1.9,1.5-3.8,1.8-5.9
			s0.4-4.1,0.4-5.9v-5.3h11.4v5.8h-3.6v4.3h1.7v-3.1h1.7v4.8h-3.4v4h2V283h1.8v6h-1.8v-1.2h-6.2v1.2h-1.7v-6h1.7v3.1h2.2v-4h-3.5
			v-4.7h1.7v3h1.8v-4.3h-4C1108.5,278,1108.3,279.9,1108,282z M1108.5,272v2.2h7.7V272H1108.5z"/>
		<path class="st1" d="M1125,277.3l-1.2,1.9c-1.1-1-2.2-1.9-3.3-2.5l1-1.6C1122.8,275.8,1123.9,276.5,1125,277.3z M1125.5,281.3
			c-1,2.9-2.1,5.4-3.4,7.5l-1.5-1.6c1-1.6,2.1-4,3.3-7L1125.5,281.3z M1125.7,272.3l-1.2,2c-1.1-1.1-2.2-1.9-3.3-2.5l1.1-1.6
			C1123.4,270.7,1124.6,271.4,1125.7,272.3z M1139,286.5c0,0.7-0.2,1.2-0.5,1.6c-0.3,0.3-0.7,0.5-1.2,0.5h-2.9l-0.4-1.9l2.5,0.1
			c0.4,0,0.6-0.3,0.6-0.8v-13.7h-9.3V289h-1.9v-18.5h13v16H1139z M1136.2,274v1.8h-7.6V274H1136.2z M1135.6,277.6v7.6h-6.3v-7.6
			H1135.6z M1133.8,279.4h-2.5v3.9h2.5V279.4z"/>
		<path class="st1" d="M1152.1,270.7h8.1v4.4h-1.7c-0.6,1-1.3,1.8-2,2.4c1.1,0.6,2.5,1.1,4.3,1.6l-1,1.6c-1.6-0.5-2.9-1-3.9-1.5v1.2
			h-9v-0.9c-1.1,0.7-2.6,1.2-4.3,1.7l-0.8-1.5c1.2-0.3,2.2-0.7,3.1-1c-0.3-0.5-0.7-0.9-1.1-1.4c-0.3,0.2-0.6,0.4-0.9,0.5l-1.2-1.4
			c2.4-1.2,4.1-2.5,5.3-3.9l1.6,0.3c-0.2,0.3-0.4,0.5-0.6,0.7h3.9c0.3,0.3,0.5,0.7,0.8,1v-1h5.6v-1.2h-14.5v2.6h-1.8v-4.3h8
			c-0.3-0.3-0.6-0.6-0.9-0.9l2.1-0.2C1151.5,269.9,1151.8,270.3,1152.1,270.7z M1148,284.8c-0.7,0.8-1.4,1.4-2.1,1.8
			c-0.8,0.5-1.8,1.1-3,1.6l-1-1.6c0.9-0.3,1.8-0.6,2.6-1.1c0.6-0.4,1.3-0.9,1.9-1.5L1148,284.8z M1160.3,281.7v1.7h-8v3.4
			c0,0.7-0.2,1.1-0.5,1.4s-0.8,0.4-1.6,0.4h-1.8l-0.3-1.8c0.7,0.1,1.2,0.2,1.6,0.2c0.5,0,0.7-0.1,0.7-0.4v-3.2h-8.4v-1.7H1160.3z
			 M1146.1,278.1c0.3-0.2,0.6-0.4,0.9-0.6c0,0,0.1,0,0.1-0.1c-0.4-0.5-1-1-1.6-1.5c-0.3,0.2-0.5,0.4-0.8,0.6
			C1145.3,277.1,1145.7,277.7,1146.1,278.1z M1148.1,276.6c0.5-0.5,0.9-1,1.4-1.6h-3c-0.1,0.1-0.1,0.1-0.1,0.1
			C1147.1,275.7,1147.7,276.2,1148.1,276.6z M1155,278.8c-0.3-0.1-0.5-0.3-0.7-0.4c-1-0.7-2-1.7-3-3c-1.1,1.5-2.2,2.7-3.4,3.4H1155z
			 M1155.1,276.7c0.5-0.5,1-1,1.5-1.7h-3.4C1153.9,275.8,1154.5,276.3,1155.1,276.7z M1160.3,286.6l-1.1,1.6c-1.6-1.3-3.3-2.2-5-2.9
			l0.9-1.4C1157,284.7,1158.8,285.6,1160.3,286.6z"/>
		<path class="st1" d="M1172.8,281.5c-0.3,0.4-0.9,0.9-1.7,1.3l-0.7-1c1-0.5,1.6-1.1,1.7-1.9h-1.3v-2.5h2.6v2.1
			C1173.4,280.3,1173.2,280.9,1172.8,281.5z"/>
		<path class="st1" d="M977.7,297.1h2.4v1.7h-6.6v-1.7h2.3c-0.1-0.7-0.3-1.4-0.4-2.1l2-0.2C977.5,295.5,977.6,296.2,977.7,297.1z
			 M979.6,300.2v1.7H974v-1.7H979.6z M979.6,303.3v1.6H974v-1.6H979.6z M979.7,312.6h-3.8v1.4H974v-7.4h5.6v6H979.7z M977.8,310.9
			v-2.5h-1.9v2.5H977.8z M986.2,298.3v3.3h-1.4v1h3.2v-1h-1.1v-3.3h5.1v3.3h-2.3v1h2.8v1.4h-2.8v1h2.4v1.3h-2.4v1.1h3v1.4H988
			c0.5,0.8,0.9,1.3,1.3,1.8c0.2-0.1,0.4-0.3,0.7-0.5c0.3-0.3,0.5-0.6,0.8-1.1l1.3,0.8c-0.4,0.6-0.7,1-1,1.3
			c-0.2,0.2-0.3,0.3-0.5,0.5c0.6,0.4,1.4,0.8,2.4,1.2l-0.9,1.5c-1.6-0.7-2.8-1.4-3.5-2.1c-0.8-0.7-1.6-1.8-2.3-3.2
			c-0.4,0.4-0.8,0.7-1.3,1v2c0.9-0.2,1.8-0.3,2.6-0.5v1.6c-1.7,0.4-3.6,0.8-5.7,1.2l-0.5-1.6c0.6-0.1,1.3-0.2,1.9-0.3V311
			c-0.7,0.3-1.6,0.6-2.5,0.8l-0.7-1.6c1.3-0.3,2.4-0.6,3.2-1c0.2-0.1,0.5-0.2,0.7-0.4h-3.7v-1.4h2.9v-1.1h-2.1V305h2.1v-1h-2.5v-1.4
			h2.5v-1h-2v-3.3L986.2,298.3L986.2,298.3z M987.4,296.1h5.1v1.5h-12.2v-1.5h5.1c-0.2-0.4-0.3-0.7-0.5-1.1l2-0.2
			C987.2,295.2,987.3,295.6,987.4,296.1z M984.6,299.4h-2v1.2h2V299.4z M988,304h-3.2v1h3.2V304z M988,306.3h-3.2v1.1h3.2V306.3z
			 M990.5,299.4h-2v1.2h2V299.4z"/>
		<path class="st1" d="M999.5,295.8v-1h1.6v1h3.8v2.4h1.2v1.4h-1.2v2.5h-3.8v1h3.5l-0.1-0.1c0.9-1.2,1.6-2.4,2-3.6
			c0.4-1.1,0.8-2.6,1.1-4.5l1.8,0.3c-0.2,1.1-0.4,2.1-0.6,2.9h4.7v1.7h-1.2c-0.2,3.9-0.7,6.8-1.4,8.7c-0.1,0.2-0.2,0.4-0.3,0.6
			c0.7,1,1.7,2.1,3,3.2l-1,1.8c-1.3-1-2.3-2.1-3.1-3.2c-0.8,1.2-1.9,2.2-3.1,3.2l-1.2-1.5c1.4-1,2.5-2.1,3.3-3.3
			c-0.8-1.5-1.4-3.5-2-6.1c-0.3,0.5-0.6,0.9-0.9,1.3l-0.8-0.9v3.1h-4.1c-0.3,0.4-0.5,0.7-0.7,1h5.6v1.5h-1.7c-0.5,1-1.1,1.8-1.7,2.4
			c0.8,0.3,1.5,0.7,2.4,1.1l-1.1,1.4c-0.8-0.5-1.7-1-2.7-1.4c-1.5,0.9-3.4,1.4-5.6,1.4l-0.9-1.5c2.1,0,3.7-0.2,4.7-0.7
			c-1.1-0.4-2.2-0.8-3.4-1.1c0.4-0.5,0.9-1,1.3-1.6h-2.7v-1.5h3.7c0.2-0.3,0.5-0.7,0.7-1h-3.3v-3.6h3.7v-1h-3.8v-2.5H994v-1.4h1.2
			v-2.4L999.5,295.8L999.5,295.8z M999.5,298.1v-1h-2.1v1H999.5z M999.5,299.5h-2.1v1.2h2.1V299.5z M999.5,304.3h-2.1v1.1h2.1V304.3
			z M1002.4,309.1h-3.1c-0.3,0.4-0.5,0.7-0.8,1c0.8,0.2,1.6,0.5,2.5,0.8C1001.5,310.3,1002,309.8,1002.4,309.1z M1001.1,298.1h2.1
			v-1h-2.1V298.1z M1003.3,299.5h-2.1v1.2h2.1V299.5z M1003.4,304.3h-2.3v1.1h2.3V304.3z M1009.6,307.3c0.5-1.6,0.9-4.1,1-7.5h-2.4
			c0,0.1-0.1,0.2-0.1,0.3c-0.1,0.3-0.2,0.6-0.3,0.8C1008.4,303.7,1008.9,305.9,1009.6,307.3z"/>
		<path class="st1" d="M1017.7,298.6v-3.8h1.8v3.8h1.8v1.6h-1.8v4.1c0.6-0.3,1.2-0.7,1.8-1.2v2c-0.6,0.4-1.2,0.8-1.8,1.2v5.6
			c0,0.7-0.2,1.2-0.5,1.5s-0.8,0.5-1.6,0.5h-1.1l-0.4-2c0.4,0.1,0.8,0.2,1.1,0.2c0.5,0,0.7-0.2,0.7-0.5v-4.4
			c-0.6,0.3-1.3,0.5-1.9,0.7l-0.3-2.1c0.7-0.1,1.4-0.3,2.1-0.6v-5h-2.1v-1.6L1017.7,298.6L1017.7,298.6z M1028.2,294.8v0.9h5.2v1.3
			h-5.2v1h6.5c-0.3,1.3-0.7,2.6-1.3,3.9l-1.9-0.5c0.4-0.5,0.7-1.2,1-1.9h-4.6v1.1l3.2-0.4l0.2,1.3l-3.4,0.4c0,0.3,0.3,0.5,0.8,0.5
			h4.8v1.4h-5.3c-0.6,0-1.1-0.1-1.5-0.3s-0.5-0.6-0.5-1.1v-0.2l-2.2,0.3l-0.2-1.3l2.4-0.3v-1.3h-2.6v3.9c0,1.6-0.1,3.3-0.4,5.1
			c-0.3,1.8-0.8,3.7-1.4,5.5l-1.5-1.3c0.6-1.5,1-3,1.3-4.6c0.2-1.7,0.3-3.2,0.3-4.6V298h4.6v-3.2H1028.2z M1034.3,304.5v1.5h-4.7
			c-0.1,0.1-0.3,0.3-0.4,0.3c0.4,0.5,0.8,1,1.1,1.4c1-0.3,2-0.8,2.9-1.5l1.1,1.1c-0.5,0.3-1.1,0.6-1.7,0.9c0.3,0.7,0.6,1.4,1,2
			s0.9,1.2,1.6,1.9l-1.1,1.4c-0.8-0.9-1.4-1.7-1.9-2.6c-0.4-0.6-0.7-1.4-0.9-2.2c-0.2,0.1-0.4,0.1-0.5,0.2c0.3,0.8,0.4,1.6,0.4,2.3
			c0,1-0.2,1.7-0.5,2.2c-0.4,0.5-1.4,0.7-3.2,0.7l-0.5-1.6c0,0,0.3,0.1,0.9,0.1s1-0.1,1.2-0.2c0.2-0.2,0.3-0.6,0.3-1.2
			c0-0.1,0-0.3,0-0.4c-0.7,0.5-1.2,0.8-1.8,1.1c-1,0.5-2.2,1-3.6,1.4l-0.8-1.4c1.4-0.4,2.7-0.8,3.8-1.3c0.8-0.4,1.5-0.8,2.1-1.3
			c0-0.1-0.1-0.3-0.1-0.4s-0.1-0.2-0.1-0.3c-0.6,0.4-1.1,0.7-1.6,0.9c-0.8,0.4-1.9,0.8-3.2,1.2l-0.7-1.2c1.3-0.3,2.4-0.7,3.3-1.1
			c0.6-0.3,1.1-0.5,1.6-0.9c-0.1-0.1-0.2-0.3-0.3-0.5c-1.1,0.6-2.4,1.1-3.8,1.5l-0.7-1.3c1.4-0.3,2.6-0.7,3.4-1
			c0.3-0.1,0.5-0.2,0.7-0.3h-3.6v-1.5L1034.3,304.5L1034.3,304.5z"/>
		<path class="st1" d="M1038.3,307.2c-0.1,2.3-0.3,4.3-0.6,5.8l-1.2-0.3c0.4-1.7,0.6-3.6,0.7-5.6L1038.3,307.2z M1045.3,296.9h-2.6
			v1.6h2.4v1.5h-2.4v1.6h2.4v1.5h-2.4v1.6h2.5c0,4.2-0.1,6.8-0.2,7.5c-0.1,0.6-0.3,1-0.6,1.2c-0.3,0.2-0.9,0.4-1.7,0.4
			c-0.4,0-0.9,0-1.4-0.1l-0.3-1.7c0.5,0.1,1.1,0.2,1.6,0.2s0.8-0.2,0.8-0.7c0.1-0.5,0.1-2.3,0.2-5.2h-6.6v-10.8h8.1v1.4H1045.3z
			 M1041,296.9h-2.2v1.6h2.2V296.9z M1041,300h-2.2v1.6h2.2V300z M1041,303h-2.2v1.6h2.2V303z M1039.9,312.3l-1.2,0.1
			c0-2.2,0-4,0.1-5.2l1-0.1C1039.9,308.4,1039.9,310.1,1039.9,312.3z M1041.7,311.2l-1.2,0.1c0-1.8-0.1-3.3-0.3-4.3l1-0.1
			C1041.5,308,1041.7,309.4,1041.7,311.2z M1043.5,310l-1.1,0.3c-0.1-1.2-0.3-2.4-0.4-3.5l0.9-0.3
			C1043.1,307.8,1043.3,309,1043.5,310z M1055.4,297h-8v14.5h8.1v1.7h-8.1v0.9h-1.7v-18.7h9.7V297z M1051.4,303.5v6.9h-3v-6.9
			H1051.4z M1054.9,298v4.4h-6.1V298H1054.9z M1050.3,305h-0.9v3.9h0.9V305z M1053.4,299.3h-3.1v1.8h3.1V299.3z M1055.3,303.5v6.9
			h-3.1v-6.9H1055.3z M1054.3,305h-1v3.9h1V305z"/>
		<path class="st1" d="M1067.7,296.7c-1.1,0.2-2.4,0.3-3.9,0.4v1.4h4.3v1.6h-4.3v1.1h4.1v6.5h-4.1v1.2h3.7v1.4h-3.7v1.6
			c1.3-0.1,2.6-0.2,3.7-0.4v0.7c1.3-1.9,2.1-3.9,2.7-6c0.4-1.4,0.6-3.3,0.7-5.8h-2.2v-1.7h2.3c0-0.3,0-0.7,0-1v-2.8h1.8v2.8
			c0,0.4,0,0.7,0,1h3.8c0,7.1-0.1,11.3-0.2,12.6c-0.1,1-0.4,1.7-0.7,2c-0.4,0.4-1,0.6-2.1,0.6c-0.5,0-1,0-1.6-0.1l-0.3-2.1
			c0.6,0.1,1.2,0.2,1.9,0.2c0.6,0,0.9-0.4,0.9-1.3c0.1-1,0.2-4.5,0.2-10.3h-2c-0.1,2.4-0.4,4.5-0.8,6.3c-0.5,2.4-1.6,4.8-3.1,7.2
			l-1.3-1.1v0.2c-1.9,0.3-5.1,0.6-9.8,0.9l-0.3-1.7c1.6,0,3.2-0.1,4.6-0.2v-1.7h-3.7v-1.4h3.7v-1.2h-3.8v-6.5h3.8V300h-4.7v-1.6h4.7
			v-1.3c-1.2,0-2.4,0.1-3.7,0.1l-0.5-1.6c3.5,0,6.5-0.1,8.9-0.5L1067.7,296.7z M1062.1,303.9v-1.4h-2v1.4H1062.1z M1062.1,305h-2
			v1.3h2V305z M1063.9,303.9h2.3v-1.4h-2.3V303.9z M1066.2,305h-2.3v1.3h2.3V305z"/>
		<path class="st1" d="M1087.1,294.8v3.3h1.9v-3.3h1.9v3.3h1.5c0.5-0.7,0.9-1.7,1.4-2.9l2,0.7c-0.4,0.8-0.8,1.6-1.2,2.1h3.1v1.7
			h-5.8l1.5,0.5c-0.3,0.5-0.6,0.9-0.9,1.3h4.6v1.6h-7.8v1.2h7.4v1.6h-7.4v1.2h8.5v1.6h-6.8c0.9,0.8,1.8,1.4,2.5,1.8
			c1,0.5,2.4,0.9,4.2,1.3l-1.1,1.7c-2.1-0.6-3.7-1.3-4.7-1.9c-0.9-0.6-1.8-1.5-2.7-2.6v4.8h-2V309c-0.6,0.7-1.2,1.3-1.9,1.8
			c-1.2,0.9-3,1.8-5.4,2.7l-1-1.6c2.4-0.8,4.1-1.4,5.1-2.1c0.5-0.3,1-0.7,1.4-1.1h-6.7v-1.6h8.4v-1.2h-7.2v-1.6h7.2v-1.2h-7.7v-1.6
			h4.7c-0.2-0.4-0.5-0.9-0.8-1.3l1.3-0.5h-5.9V298h3c-0.3-0.7-0.6-1.4-1-2.2l1.9-0.7c0.4,0.8,0.7,1.8,1.1,2.9h1.5v-3.3h1.9V294.8z
			 M1090.1,301.6c0.4-0.5,0.8-1.2,1.1-1.8h-6c0.3,0.5,0.6,1.1,0.8,1.8H1090.1z"/>
		<path class="st1" d="M1107.9,295.7v1.6c-0.8,1.4-1.8,2.6-2.9,3.7c0.2,0.3,0.4,0.5,0.6,0.7h2.6v1.6c-0.4,1.6-0.9,3-1.5,4.2
			l-1.3-1.2c0.3-0.6,0.7-1.6,1-2.9h-1.2v8.2c0,0.7-0.2,1.2-0.5,1.5s-0.8,0.5-1.6,0.5h-1.6l-0.4-2c0.6,0.1,1.1,0.2,1.6,0.2
			s0.7-0.1,0.7-0.5v-7c-0.4,1.5-0.7,2.6-1,3.4c-0.4,1.1-1,2.4-1.9,3.8l-1.4-1.2c0.8-1.2,1.4-2.4,1.9-3.6c0.3-0.9,0.7-2,0.9-3.2h-2.5
			v-1.8h3.8c-0.7-0.8-1.4-1.7-2.3-2.6l1.3-0.8c0.6,0.6,1.1,1.1,1.6,1.6c0.6-0.6,1.2-1.3,1.9-2.3h-5.8v-1.7h8V295.7z M1112,306.3
			c0.1-0.6,0.2-1.2,0.2-1.9l1.9,0.1c0,0.6-0.1,1.2-0.2,1.7h4.1c-0.1,3.2-0.3,5.1-0.5,5.9c-0.1,0.5-0.4,1-0.9,1.3
			c-0.3,0.2-1.4,0.4-3.4,0.4l-0.4-1.9c0.7,0,1.1,0.1,1.4,0.1c0.7,0,1.1-0.1,1.3-0.3c0.3-0.4,0.4-1.7,0.5-3.9h-2.6
			c-0.3,1.1-0.7,2-1.2,2.7c-0.9,1.4-2.5,2.5-4.7,3.3l-0.7-1.8c1.9-0.6,3.2-1.5,4-2.7c0.3-0.4,0.5-0.9,0.7-1.5h-3.6v-1.6L1112,306.3
			L1112,306.3z M1112.6,295.1c-0.3,0.6-0.5,1.1-0.8,1.6h6.7v1.6h-1.2c-0.5,1.5-1.2,2.7-2.1,3.6l-0.1,0.1c1,0.7,2.4,1.3,3.9,1.7
			l-1.1,1.7c-1.8-0.7-3.3-1.4-4.3-2.2c-1.1,0.7-2.5,1.5-4.3,2.4l-0.9-1.8c1.6-0.5,2.8-1.1,3.9-1.8c-0.8-0.8-1.4-1.6-2-2.6
			c-0.5,0.7-1,1.4-1.6,1.9l-1.3-1.6c1.6-1.5,2.7-3.2,3.5-5L1112.6,295.1z M1113.7,300.9c0.7-0.7,1.3-1.5,1.7-2.6h-3.8
			C1112.2,299.3,1112.9,300.2,1113.7,300.9z"/>
		<path class="st1" d="M1125.2,302.5l-1.2,1.9c-1.1-1-2.2-1.9-3.3-2.5l1.1-1.6C1123,301,1124.2,301.7,1125.2,302.5z M1125.7,306.5
			c-1,2.8-2.1,5.3-3.3,7.4l-1.5-1.6c1-1.6,2.1-3.9,3.2-6.9L1125.7,306.5z M1126.2,297.5l-1.2,2c-1-1.1-2.1-2-3.3-2.7l1.1-1.6
			C1124,295.8,1125.2,296.6,1126.2,297.5z M1130.8,297.9v-3h2v3h5.2v5.9h1.7v1.8h-5.1c0.3,1.4,0.8,2.5,1.5,3.4c0.8,1.2,2,2.2,3.4,3
			l-1.2,1.9c-1.8-1.2-3.1-2.4-3.9-3.8c-0.8-1.2-1.4-2.7-1.7-4.5h-0.5c-0.3,1.4-0.7,2.7-1.2,3.7c-1,2.1-2.6,3.6-4.9,4.7l-1.2-1.8
			c2.2-1.2,3.7-2.6,4.5-4.4c0.3-0.7,0.5-1.4,0.7-2.2h-4.6v-1.8h4.9c0.1-1,0.2-2.1,0.2-3.3v-0.8h-3.7v-1.8L1130.8,297.9L1130.8,297.9
			z M1132.9,300.5c0,1.2-0.1,2.3-0.2,3.3h3.5v-4.1h-3.3V300.5z"/>
		<path class="st1" d="M1147.1,295.3c-0.3,0.5-0.6,0.9-0.9,1.3h4.7v1.7h-2.8c0.3,0.6,0.5,1.3,0.7,2l-2.1,0.2
			c-0.2-0.8-0.4-1.5-0.6-2.1h-1.3c-0.7,0.8-1.4,1.5-2.1,2l-1.3-1.6c1.7-1.1,2.9-2.4,3.8-3.9L1147.1,295.3z M1150.1,300.9v-1.2h1.9
			v1.2h8.5v1.8h-8.5v1.2h7.1v3.4c0,0.7-0.2,1.2-0.5,1.5s-0.7,0.5-1.2,0.5h-1.7l-0.4-1.8l1.4,0.1c0.4,0,0.6-0.3,0.6-0.7v-1.2h-5.2
			v0.4c0.8,1.2,1.8,2.2,3.1,3.1c1.2,1,3.2,2,5.9,2.9l-1.3,1.5c-2-0.9-3.6-1.7-4.8-2.5c-1-0.7-2-1.5-2.8-2.4v5.5h-1.9v-5.5
			c-0.8,0.8-1.5,1.5-2.1,2c-1.5,1.2-3.2,2.2-5,3.1l-1.2-1.8c2.6-1.1,4.5-2.2,5.8-3.2c0.8-0.6,1.7-1.4,2.6-2.5v-0.5h-4.9v3.5h-1.9
			V304h6.8v-1.2h-8.2V301h7.9V300.9z M1155.5,295.3c-0.2,0.5-0.5,0.9-0.7,1.3h6v1.7h-3.6c0.3,0.7,0.5,1.3,0.8,2l-2.1,0.2
			c-0.2-0.8-0.4-1.5-0.6-2.2h-1.5c-0.5,0.7-0.9,1.2-1.4,1.6l-1.3-1.6c1.2-1,2-2.2,2.6-3.4L1155.5,295.3z"/>
	</g>
</g>
<polygon class="st5" points="824.2,31.5 681.9,422.6 909.9,422.6 909.9,31.5 "/>
<rect x="620.8" y="52.5" class="st2" width="272.8" height="349.2"/>
<g class="st3">
	<path class="st4" d="M717.1,212.8h-8.6v1.9c0,0.6,0.1,0.9,0.4,0.9h3.7c0.6,0,0.9-0.3,1-0.9c0,0,0-0.5,0.2-1.3l4.2,1.2
		c-0.4,2.3-1,3.7-1.9,4.1c-0.3,0.2-0.8,0.3-1.3,0.4v2h6V219c-0.6-0.1-1.1-0.3-1.4-0.6c-0.6-0.5-0.9-1.3-0.9-2.2V204h13v8.8h-8.4v1.9
		c0,0.6,0.1,0.9,0.4,0.9h4.2c0.5,0,0.8-0.3,0.9-0.9c0,0,0-0.5,0.2-1.3l4.2,1.2c-0.4,2.3-0.9,3.7-1.8,4.1c-0.5,0.3-1.4,0.5-2.7,0.5
		H726v1.9h6.2v3.9H726v2.3h7.2v4h-9c2.3,0.6,5,1.6,7.9,2.8l-2.1,4.2c1.1,0,2.3-0.1,3.5-0.2l-0.9,5.4c-4.9,0.1-7.7,0.2-8.4,0.2
		c-11.4,0-18.6-0.6-21.6-1.8c-1.4-0.6-2.7-1.4-3.7-2.4c-1,1.6-2.2,3.2-3.6,4.8l-3.7-4.4c2-1.9,3.4-3.8,4.4-5.6
		c0.8-1.4,1.5-3.3,2-5.6h-4.8c1.4-3.4,2.5-6.6,3.3-9.5h-4.4v-4.7h10.6c-0.8,3.3-1.7,6.5-2.9,9.5h4.1c-0.6,4.7-1.6,8.6-3,11.6v0.1
		c1,0.9,2,1.5,3.1,1.9c0.6,0.3,1.5,0.4,2.6,0.6l-2.2-4.5c2.7-0.4,5.5-1.2,8.3-2.4h-9v-4h6V225h-4.9v-4h4.9v-1.9h-2.1
		c-1.3,0-2.3-0.2-2.8-0.7c-0.6-0.5-0.9-1.3-0.9-2.2V204h13.2V212.8z M702.7,209.8l-4.4,3.3c-1.2-2-2.8-4.2-5.1-6.5l4.2-2.8
		C699.3,205.6,701.1,207.6,702.7,209.8z M717.3,238.8c1.5,0,5.4-0.1,11.8-0.5c-3.2-1.8-6.2-3.1-8.9-4.1l2.2-3h-9l2.8,3.1
		c-3,1.8-5.9,3.1-8.8,3.9C709.9,238.6,713.2,238.8,717.3,238.8z M708.5,209.6h4v-2.1h-4V209.6z M720.8,227.2v-2.3h-6v2.3H720.8z
		 M723.1,209.6h3.9v-2.1h-3.9V209.6z"/>
	<path class="st4" d="M777.2,244.6h-5.6v-1.2h-27.9v1.2H738v-40.4h39.2V244.6z M771.6,238.9v-30.4h-27.9v30.4H771.6z M768.8,210v6.8
		h-8.6v1.6h10.6v3.4h-26.2v-3.4h10.3v-1.6h-8.4V210H768.8z M769.5,223v14.4H746V223H769.5z M764.4,225.8H751v8.8h13.4V225.8z
		 M763.5,212.6h-11.7v1.6h11.7V212.6z M762.8,227.2v6h-10.2v-6H762.8z M758.9,229.1h-2.5v2.1h2.5V229.1z"/>
	<path class="st4" d="M799.7,205.9v-2.8h5.8v2.8h14.9v4.8h-14.9v2.4H818v4.6h-12.5v2.8h16.9v5h-14c1,2.1,2.1,4,3.3,5.5
		c1.7-1.6,3.2-3.2,4.5-5l4.6,2.8c-1.7,2.2-3.6,4.1-5.7,5.8c2.3,2,4.9,3.5,7.8,4.6l-3.3,5.6c-4.5-2.4-8.1-5.2-10.6-8.4
		c-2.4-3.1-4.4-6.7-6-10.9h-2.2c-0.7,0.9-1.4,1.8-2.1,2.5v9.3c2.7-0.5,5.3-1.2,7.7-2v5.5c-5.1,1.6-11,2.8-17.6,3.7l-1.1-5.8
		c1.9-0.1,3.7-0.2,5.5-0.5v-5.6c-2.8,1.8-5.8,3.2-8.8,4.2l-2.4-5.3c5-1.3,9.1-3.2,12.5-5.9h-11.8v-5h17.1v-2.8h-12.5v-4.6h12.5v-2.4
		H785V206h14.7V205.9z"/>
</g>
<g>
	<g>
		<path class="st5" d="M700.1,275.4c-1.2,0.7-2.6,1.2-4.3,1.7l-0.7-1.8c1.5-0.3,3-0.9,4.7-1.6L700.1,275.4z M705.8,270.2
			c-0.3,0.4-0.5,0.7-0.7,1h8.3v1.3c-0.8,0.8-1.7,1.6-2.7,2.2l-1.2-1.1c0.5-0.2,1-0.5,1.6-1h-2.9c-0.3,0.5-0.7,1-1,1.4
			c2.4,0.5,4.6,1.2,6.6,1.9l-1,1.5c-0.2-0.1-0.4-0.2-0.7-0.3v8.5h-4.2c2,0.4,4,0.9,6.1,1.6l-0.7,1.7c-2.1-0.8-4.3-1.5-6.7-1.9
			l0.7-1.4H702l1,1.2c-2.2,0.9-4.4,1.6-6.6,2l-0.8-1.7c2.4-0.3,4.4-0.8,6.2-1.5h-4.3V277h3.9l-0.9-1.2c1.8-0.4,3.3-1.1,4.3-1.9
			c0.5-0.4,0.9-0.8,1.3-1.4h-2.2c-0.6,0.5-1.4,1.1-2.6,1.8l-1.4-1.2c1.1-0.5,2-1.1,2.7-1.7c0.6-0.5,1.2-1.2,1.6-2L705.8,270.2z
			 M700.2,271.6l-1.2,1.7c-1-0.8-2.1-1.4-3.2-1.9l1-1.5C698,270.4,699.1,271,700.2,271.6z M710.2,279.4v-1h-10.8v1H710.2z
			 M710.2,281.8v-1.1h-10.8v1.1H710.2z M710.2,283.1h-10.8v1.2h10.8V283.1z M711.6,277c-1.9-0.7-3.8-1.3-5.6-1.8
			c-0.9,0.7-2,1.3-3.4,1.8H711.6z"/>
		<path class="st5" d="M720,276.7v-7.1h1.8v7.1h3.3v1.7h-3.3v0.4c1.1,0.9,2.2,2,3.3,3.2l-1,1.5c-0.9-1.1-1.7-2.1-2.3-2.8v8.2H720
			V281c-0.1,0.2-0.2,0.5-0.3,0.7c-0.8,1.6-1.8,3-2.9,4.2l-0.7-2.1c1.6-1.6,2.8-3.4,3.8-5.4h-3.6v-1.7H720z M719.2,275.2l-1.7,0.4
			c-0.3-1.4-0.6-2.9-1-4.2l1.6-0.5C718.5,272.2,718.9,273.6,719.2,275.2z M725.3,271.3c-0.3,1.6-0.7,3.1-1.1,4.5l-1.6-0.6
			c0.4-1.1,0.8-2.6,1.1-4.3L725.3,271.3z M735.4,283.4l-2,0.3v5.2h-1.8v-5l-6.5,0.9l-0.3-1.8l6.7-1v-12.5h1.8v12.2l1.8-0.3
			L735.4,283.4z M730.4,279.3l-1.4,1.4c-0.8-0.8-1.8-1.6-3.2-2.5l1.3-1.2C728.5,277.7,729.6,278.5,730.4,279.3z M730.9,274.2
			l-1.5,1.5c-0.8-0.8-1.8-1.6-3.3-2.5l1.4-1.3C728.9,272.7,730,273.5,730.9,274.2z"/>
		<path class="st5" d="M742.3,272.9h2.3v1.7c-0.8,1.6-1.5,2.8-2.2,3.8c1,0.7,1.9,1.5,2.7,2.5l-1.1,1.7c-0.7-0.9-1.4-1.6-2.1-2.2v8.5
			h-1.8v-7.8c-0.7,0.7-1.5,1.4-2.4,2.1L737,281c1.3-1,2.3-1.8,3-2.6c0.8-0.7,1.6-1.9,2.4-3.6h-5.1V273h3.1c-0.4-1.1-0.8-2.1-1.2-3.1
			l2-0.2C741.6,270.6,741.9,271.7,742.3,272.9z M755,270.2v12.1h-2.5v3.8c0,0.4,0.2,0.6,0.7,0.6h0.6c0.3,0,0.5-0.1,0.6-0.3
			c0.1-0.2,0.3-1.1,0.3-2.8l1.7,0.5c-0.1,2.1-0.4,3.3-0.7,3.7c-0.3,0.4-0.8,0.6-1.6,0.6h-1.5c-0.6,0-1-0.1-1.3-0.4s-0.5-0.8-0.5-1.3
			v-4.3h-1.6c-0.3,1.5-0.8,2.7-1.3,3.6c-0.7,1.1-1.7,2-3.1,2.9l-1.2-1.6c1.1-0.7,2-1.4,2.6-2.2c0.5-0.7,0.8-1.6,1.1-2.7h-2v-12.1
			h9.7V270.2z M753.1,273.8V272h-5.9v1.7L753.1,273.8L753.1,273.8z M753.1,277v-1.7h-5.9v1.7H753.1z M753.1,278.7h-5.9v1.9h5.9
			V278.7z"/>
		<path class="st5" d="M774.2,279v6.7h-3.8v0.7c0,0.4,0.3,0.6,0.8,0.6h3.4c0.3,0,0.5-0.1,0.6-0.3c0.1-0.2,0.3-0.9,0.3-2.3l1.8,0.6
			c-0.2,1.7-0.4,2.7-0.8,3c-0.3,0.3-0.9,0.5-1.7,0.5h-4.3c-0.6,0-1-0.1-1.4-0.4c-0.3-0.3-0.5-0.7-0.5-1.2v-1.2h-2.2
			c-0.6,0.9-1.3,1.5-2,1.9c-1.3,0.8-3.1,1.2-5.3,1.2l-1-1.7c2.1,0,3.6-0.2,4.4-0.5c0.7-0.3,1.2-0.6,1.6-1H761V279H774.2z
			 M764.5,271.2c-0.7,0.1-1.9,0.3-3.5,0.4v0.7h3.3v1.2H761v1h3.2v1.2H761v1.1h13v-1.1h-3v-1.2h3.1l0.1-1H771v-1.2h3.3v-0.8H771V270
			h5.2l-0.3,6.8h1.2v4.3h-1.8v-2.9H760v2.9h-1.8v-4.3h1.2l-0.2-6.6c1.5-0.1,3-0.2,4.7-0.5L764.5,271.2z M772.3,281v-0.8h-9.5v0.8
			H772.3z M772.3,282.8V282h-9.5v0.8H772.3z M772.3,283.8h-9.5v0.8h9.5V283.8z M770.5,270.4c-0.4,0.4-0.9,0.8-1.3,1
			c0.4,0.3,0.8,0.6,1.2,0.8l-1.3,0.9c-0.3-0.3-0.7-0.6-1.2-1c-0.7,0.4-1.5,0.7-2.5,1.1l-0.7-1.2c0.7-0.2,1.4-0.4,2-0.7
			c-0.4-0.3-0.8-0.6-1.3-0.9l1.1-0.7c0.5,0.3,1,0.6,1.4,0.9c0.5-0.3,0.9-0.6,1.3-1L770.5,270.4z M770.8,273.9
			c-0.4,0.4-0.9,0.7-1.3,0.9c0.4,0.3,0.8,0.5,1.1,0.8l-1.1,1.1c-0.4-0.3-0.9-0.7-1.4-1.1c-0.7,0.4-1.6,0.7-2.6,1.1l-0.7-1.2
			c0.7-0.2,1.4-0.4,2.1-0.7c-0.4-0.2-0.8-0.5-1.2-0.7l1-0.9c0.6,0.3,1.1,0.6,1.7,0.9c0.5-0.3,0.9-0.6,1.4-0.9L770.8,273.9z"/>
		<path class="st5" d="M785.6,270.4c-0.6,1.7-1.2,3.2-1.8,4.3v14.1h-2.1V278c-0.7,0.9-1.4,1.8-2.2,2.7l-0.7-2.5
			c1-1.2,1.9-2.4,2.7-3.7c0.8-1.1,1.5-2.7,2.2-4.9L785.6,270.4z M789,269.7v7.6c3-1.4,5.5-3.1,7.5-4.9l1.2,1.8
			c-2.5,2.1-5.4,3.9-8.7,5.3v6.5c0,0.5,0.2,0.7,0.7,0.7h4.8c0.4,0,0.8-0.2,1-0.5s0.4-2,0.5-4.8l2,0.6c-0.2,3.3-0.5,5.2-1,5.8
			c-0.4,0.6-1.1,0.9-2.2,0.9H789c-0.6,0-1.1-0.2-1.5-0.5c-0.4-0.4-0.6-0.9-0.6-1.4v-17h2.1V269.7z"/>
		<path class="st5" d="M810.4,281.5c-0.3,0.4-0.9,0.9-1.7,1.3l-0.7-1c1-0.5,1.6-1.1,1.7-1.9h-1.3v-2.5h2.6v2.1
			C811,280.3,810.8,280.9,810.4,281.5z"/>
		<path class="st5" d="M655.9,296.3v3.8h2.3V295h1.8v18.9h-1.8v-8.3h-1.4c-0.1,1.9-0.2,3.3-0.3,4c-0.2,1.4-0.7,2.7-1.5,4l-1.6-1.2
			c0.6-0.9,1-1.9,1.3-2.9c0.2-0.9,0.3-2.2,0.4-3.9h-1.6v-1.7h4.9v-2h-4.1v-5.6H655.9z M666.1,295.4c-0.3,0.4-0.5,0.7-0.7,1h6.4v1.4
			c-0.9,1.6-2.1,2.9-3.7,4.1c-2,1.6-4.3,2.6-7,3.2l-0.8-1.6c0.9-0.2,1.7-0.4,2.5-0.6c-0.5-0.5-1.2-1.1-1.9-1.7l1.2-0.7
			c0.9,0.7,1.7,1.3,2.4,1.8c0.4-0.2,0.9-0.4,1.3-0.7c-0.7-0.5-1.6-1.1-2.6-1.7l1.2-1.1c1.1,0.6,2.1,1.2,2.9,1.8
			c0.8-0.7,1.6-1.5,2.2-2.4h-5.3c-0.8,0.9-1.6,1.6-2.5,2.2l-1.3-1.6c1.7-1.1,3.1-2.3,3.9-3.6L666.1,295.4z M668.2,305.3v-2.2h2v2.2
			h2v1.9h-2v4.8c0,0.7-0.2,1.2-0.5,1.5s-0.9,0.5-1.7,0.5h-2.3l-0.4-2c0.8,0.1,1.6,0.2,2.1,0.2s0.8-0.2,0.8-0.5v-4.4h-7.6v-1.9h7.6
			V305.3z M665.6,310.9l-1.9,1.3c-0.5-1-1.2-2.1-2.1-3.4l1.6-1C664.2,309,665,310,665.6,310.9z"/>
		<path class="st5" d="M685.2,296.1h8.1v1.6h-16.6v5.9c0,1.6-0.1,3.3-0.2,5c-0.2,1.8-0.5,3.6-1,5.3l-1.6-1.4
			c0.4-1.4,0.6-2.9,0.8-4.5c0.1-1.6,0.2-3.1,0.2-4.5V296h8.2c-0.2-0.4-0.4-0.7-0.7-1.1l2-0.2C684.8,295.2,685,295.6,685.2,296.1z
			 M682.1,299.3h3v1.4h-1c-0.1,0.6-0.3,1.2-0.5,1.7h1.8v1.4h-8.3v-1.4h1.8c-0.2-0.6-0.4-1.2-0.7-1.7h-0.8v-1.4h2.9
			c-0.1-0.4-0.3-0.8-0.5-1.1l1.8-0.3C681.8,298.3,681.9,298.8,682.1,299.3z M684.7,312c0,0.5-0.1,1-0.4,1.3c-0.3,0.3-0.6,0.4-1,0.4
			h-2l-0.3-1.6l1.6,0.1c0.3,0,0.5-0.3,0.5-0.7v-0.8h-3.7v2.9h-1.6v-8.9h7L684.7,312L684.7,312z M683,307.1V306h-3.7v1.1H683z
			 M683,309.5v-1.2h-3.7v1.2H683z M681.9,302.4c0.2-0.6,0.4-1.1,0.6-1.7H680c0.2,0.5,0.4,1.1,0.6,1.7H681.9z M687.5,301.3h5.1v3.6
			h-5.1v0.9h4.9v1.2h-4.9v0.7h4.9v1.1h-4.9v0.9h4.9v1.2h-4.9v0.7c0,0.4,0.2,0.6,0.7,0.6h2.2c0.4,0,0.7,0,0.8-0.1
			c0.2-0.1,0.3-0.4,0.4-1.1l1.7,0.5c-0.2,1.1-0.5,1.8-0.8,2s-0.9,0.3-1.8,0.3h-3.1c-0.5,0-1-0.1-1.3-0.4s-0.5-0.7-0.5-1.2v-8.5h5.2
			v-1h-5.2v-4.5h1.7v0.8h5.6v1.4h-5.6L687.5,301.3L687.5,301.3z"/>
		<path class="st5" d="M702.8,300.2c0.1-1.1,0.2-2.4,0.2-3.8V295h2.1v1.4c0,1.3-0.1,2.6-0.2,3.8h8.7v2.1h-6.3c0.5,2.1,1.1,3.9,2,5.2
			c1.2,1.8,2.7,3.2,4.7,4.4l-1.2,2.1c-2.3-1.6-4.1-3.4-5.2-5.3c-1.1-1.7-1.9-3.8-2.3-6.3h-0.5c-0.3,1.4-0.7,2.7-1.2,3.8
			c-1.1,2.5-3.3,5.1-6.5,7.7l-1.8-1.6c3-2.1,5.1-4.4,6.3-6.8c0.5-0.9,0.8-1.9,1.1-3.2h-7v-2.1H702.8z"/>
		<path class="st5" d="M721,295.8v-1h1.6v1h3.8v2.4h1.2v1.4h-1.2v2.5h-3.8v1h3.5L726,303c0.9-1.2,1.6-2.4,2-3.6
			c0.4-1.1,0.8-2.6,1.1-4.5l1.8,0.3c-0.2,1.1-0.4,2.1-0.6,2.9h4.7v1.7h-1.2c-0.2,3.9-0.7,6.8-1.4,8.7c-0.1,0.2-0.2,0.4-0.3,0.6
			c0.7,1,1.7,2.1,3,3.2l-1,1.8c-1.3-1-2.3-2.1-3.1-3.2c-0.8,1.2-1.9,2.2-3.1,3.2l-1.2-1.5c1.4-1,2.5-2.1,3.3-3.3
			c-0.8-1.5-1.4-3.5-2-6.1c-0.3,0.5-0.6,0.9-0.9,1.3l-0.8-0.9v3.1h-4.1c-0.3,0.4-0.5,0.7-0.7,1h5.6v1.5h-1.7c-0.5,1-1.1,1.8-1.7,2.4
			c0.8,0.3,1.5,0.7,2.4,1.1l-1.1,1.4c-0.8-0.5-1.7-1-2.7-1.4c-1.5,0.9-3.4,1.4-5.6,1.4l-0.9-1.5c2.1,0,3.7-0.2,4.7-0.7
			c-1.1-0.4-2.2-0.8-3.4-1.1c0.4-0.5,0.9-1,1.3-1.6h-2.7v-1.5h3.7c0.2-0.3,0.5-0.7,0.7-1h-3.3v-3.6h3.7v-1h-3.8v-2.5h-1.2v-1.4h1.2
			v-2.4L721,295.8L721,295.8z M721,298.1v-1h-2.1v1H721z M721,299.5h-2.1v1.2h2.1V299.5z M721,304.3h-2.1v1.1h2.1V304.3z
			 M723.9,309.1h-3.1c-0.3,0.4-0.5,0.7-0.8,1c0.8,0.2,1.6,0.5,2.5,0.8C723.1,310.3,723.5,309.8,723.9,309.1z M722.6,298.1h2.1v-1
			h-2.1V298.1z M724.8,299.5h-2.1v1.2h2.1V299.5z M724.9,304.3h-2.3v1.1h2.3V304.3z M731.1,307.3c0.5-1.6,0.9-4.1,1-7.5h-2.4
			c0,0.1-0.1,0.2-0.1,0.3c-0.1,0.3-0.2,0.6-0.3,0.8C729.9,303.7,730.5,305.9,731.1,307.3z"/>
		<path class="st5" d="M739.2,298.6v-3.8h1.8v3.8h1.8v1.6H741v4.1c0.6-0.3,1.2-0.7,1.8-1.2v2c-0.6,0.4-1.2,0.8-1.8,1.2v5.6
			c0,0.7-0.2,1.2-0.5,1.5s-0.8,0.5-1.6,0.5h-1.1l-0.4-2c0.4,0.1,0.8,0.2,1.1,0.2c0.5,0,0.7-0.2,0.7-0.5v-4.4
			c-0.6,0.3-1.3,0.5-1.9,0.7l-0.3-2.1c0.7-0.1,1.4-0.3,2.1-0.6v-5H737v-1.6L739.2,298.6L739.2,298.6z M749.7,294.8v0.9h5.2v1.3h-5.2
			v1h6.5c-0.3,1.3-0.7,2.6-1.3,3.9l-1.9-0.5c0.4-0.5,0.7-1.2,1-1.9h-4.6v1.1l3.2-0.4l0.2,1.3l-3.4,0.4c0,0.3,0.3,0.5,0.8,0.5h4.8
			v1.4h-5.3c-0.6,0-1.1-0.1-1.5-0.3s-0.5-0.6-0.5-1.1v-0.2l-2.2,0.3l-0.2-1.3l2.4-0.3v-1.3h-2.6v3.9c0,1.6-0.1,3.3-0.4,5.1
			c-0.3,1.8-0.8,3.7-1.4,5.5l-1.5-1.3c0.6-1.5,1-3,1.3-4.6c0.2-1.7,0.3-3.2,0.3-4.6V298h4.6v-3.2H749.7z M755.8,304.5v1.5h-4.7
			c-0.1,0.1-0.3,0.3-0.4,0.3c0.4,0.5,0.8,1,1.1,1.4c1-0.3,2-0.8,2.9-1.5l1.1,1.1c-0.5,0.3-1.1,0.6-1.7,0.9c0.3,0.7,0.6,1.4,1,2
			s0.9,1.2,1.6,1.9l-1.1,1.4c-0.8-0.9-1.4-1.7-1.9-2.6c-0.4-0.6-0.7-1.4-0.9-2.2c-0.2,0.1-0.4,0.1-0.5,0.2c0.3,0.8,0.4,1.6,0.4,2.3
			c0,1-0.2,1.7-0.5,2.2c-0.4,0.5-1.4,0.7-3.2,0.7l-0.5-1.6c0,0,0.3,0.1,0.9,0.1c0.6,0,1-0.1,1.2-0.2c0.2-0.2,0.3-0.6,0.3-1.2
			c0-0.1,0-0.3,0-0.4c-0.7,0.5-1.2,0.8-1.8,1.1c-1,0.5-2.2,1-3.6,1.4l-0.8-1.4c1.4-0.4,2.7-0.8,3.8-1.3c0.8-0.4,1.5-0.8,2.1-1.3
			c0-0.1-0.1-0.3-0.1-0.4s-0.1-0.2-0.1-0.3c-0.6,0.4-1.1,0.7-1.6,0.9c-0.8,0.4-1.9,0.8-3.2,1.2l-0.7-1.2c1.3-0.3,2.4-0.7,3.3-1.1
			c0.6-0.3,1.1-0.5,1.6-0.9c-0.1-0.1-0.2-0.3-0.3-0.5c-1.1,0.6-2.4,1.1-3.8,1.5l-0.7-1.3c1.4-0.3,2.6-0.7,3.4-1
			c0.3-0.1,0.5-0.2,0.7-0.3h-3.6v-1.5L755.8,304.5L755.8,304.5z"/>
		<path class="st5" d="M764.6,295.6c-0.6,1.7-1.2,3.2-1.8,4.3V314h-2.1v-10.9c-0.7,0.9-1.4,1.8-2.2,2.7l-0.7-2.5
			c1-1.2,1.9-2.4,2.7-3.7c0.8-1.1,1.5-2.7,2.2-4.9L764.6,295.6z M768,294.9v7.6c3-1.4,5.5-3.1,7.5-4.9l1.2,1.8
			c-2.5,2.1-5.4,3.9-8.7,5.3v6.5c0,0.5,0.2,0.7,0.7,0.7h4.8c0.4,0,0.8-0.2,1-0.5s0.4-2,0.5-4.8l2,0.6c-0.2,3.3-0.5,5.2-1,5.8
			c-0.4,0.6-1.1,0.9-2.2,0.9H768c-0.6,0-1.1-0.2-1.5-0.5c-0.4-0.4-0.6-0.9-0.6-1.4v-17h2.1V294.9z"/>
		<path class="st5" d="M784.5,295c-0.2,0.2-0.3,0.4-0.4,0.6h5.5v1.5h-6.8c-0.3,0.3-0.5,0.5-0.8,0.7h6.6c0,0.2,0,0.3,0,0.4
			c1.5-1,2.7-2.2,3.5-3.4l1.6,0.3c-0.4,0.6-0.7,1.1-1.1,1.6h5.4v1.6h-1.2c-0.3,1.3-0.9,2.4-1.6,3.2c0.9,0.4,1.9,0.8,3.1,1.1
			l-0.7,1.8c-1.7-0.7-2.9-1.2-3.8-1.7c-1.1,0.8-2.6,1.4-4.3,1.8l-0.8-1.6c1.5-0.3,2.7-0.7,3.7-1.2c-0.8-0.7-1.4-1.6-2-2.7
			c-0.4,0.3-0.7,0.6-1,0.9l-0.9-1.1c0,0.5-0.1,0.9-0.1,1.2h1.1v1.5h-1.2c-0.1,1.4-0.2,2.2-0.3,2.5c0,0.1-0.1,0.3-0.1,0.4l1,0.5
			c-0.8,0.4-1.5,0.8-2.2,1.1c1.4,0,2.6,0,3.7-0.1c0.8-0.4,1.8-0.9,2.7-1.5l1.6,1c-2.2,1.2-4.2,2-5.7,2.5c-0.7,0.3-1.5,0.5-2.4,0.7
			c2.5-0.1,5-0.2,7.6-0.5c-0.4-0.4-0.7-0.7-1.1-1.1l1.3-0.8c1.5,1.3,2.7,2.5,3.5,3.5l-1.6,1c-0.3-0.4-0.7-0.8-1-1.2
			c-1.8,0.2-3.7,0.4-5.7,0.4v2.4c0,0.6-0.2,1-0.5,1.3s-0.8,0.4-1.6,0.4H786l-0.3-1.7c0.6,0.1,1.1,0.1,1.6,0.1s0.7-0.1,0.7-0.4v-2
			c-0.9,0-1.8,0.1-2.7,0.1l0.8,1.1c-1,0.6-1.8,1.1-2.6,1.4c-0.9,0.3-2,0.7-3.3,1l-0.9-1.6c1.3-0.3,2.4-0.5,3.4-0.9
			c0.8-0.3,1.4-0.6,2-1c-1.2,0-2.4,0-3.6,0l-0.3-1.7c0.7,0.1,1.2,0.1,1.7,0.1c2-0.4,3.7-0.9,4.9-1.4c-1.6,0.1-3.6,0.1-6,0.2
			l-0.2-1.4c0.9,0,1.8,0,2.7,0c0.7-0.3,1.3-0.6,2-1c-0.5,0-1.2,0-2,0l-0.4-1.2h1.6c0.6,0,1-0.1,1.2-0.3h-6.1
			c0.1-0.7,0.3-1.4,0.4-2.1h-1.1V300h1.3c0-0.5,0.1-1,0.1-1.4c-0.3,0.2-0.5,0.3-0.7,0.5l-1.2-1.4c1.6-0.9,2.9-1.8,3.7-2.9L784.5,295
			z M783.6,301.5h-1.4c-0.1,0.4-0.1,0.7-0.2,0.9h1.9L783.6,301.5z M784.2,300l-0.3-1h-1.3c0,0.4-0.1,0.7-0.1,1H784.2z M786.7,301.5
			h-1.8l0.3,0.9h1.4C786.7,302.1,786.7,301.8,786.7,301.5z M785.5,300h1.4c0-0.3,0-0.7,0.1-1h-1.8L785.5,300z M797.8,312.2l-0.7,1.6
			c-1.8-1-3.7-1.7-5.6-2.1l0.7-1.4C794,310.7,795.9,311.3,797.8,312.2z M793.7,300.7C793.7,300.7,793.8,300.7,793.7,300.7
			c0.6-0.6,1-1.4,1.3-2.4h-3.2C792.3,299.4,793,300.2,793.7,300.7z"/>
		<path class="st5" d="M803.3,297.7c-0.3-0.8-0.5-1.4-0.9-2.1l1.9-0.3c0.3,0.7,0.5,1.5,0.8,2.4h1.5c0.3-0.9,0.4-1.9,0.6-2.9l1.8,0.3
			c-0.2,0.9-0.4,1.8-0.6,2.6h8.2c-0.2,1.5-0.4,2.7-0.6,3.7h2c-0.2,1.4-0.3,2.7-0.5,3.7h1.6c-0.1,4.7-0.5,7.4-1.2,8.1
			c-0.4,0.6-1.8,0.9-4.3,0.9l-0.4-2.1c0.6,0.1,1.2,0.2,1.6,0.2c0.8,0,1.4-0.2,1.8-0.5c0.4-0.3,0.6-2,0.7-4.9h-12.7
			c-0.9,1.4-1.9,2.5-3,3.4L800,309c2.8-2.6,4.9-5.8,6.1-9.5h-5v-1.8H803.3z M806.1,308.5c-0.5,2-1.3,3.8-2.3,5.2l-1.6-1.1
			c1-1.4,1.7-2.9,2.1-4.5L806.1,308.5z M805.6,305.1h9.9c0.1-0.5,0.2-1.2,0.3-2h-9.3C806.3,303.9,806,304.5,805.6,305.1z
			 M809.3,313.4l-2,0.3c0-2.2-0.2-3.9-0.4-5.2l1.6-0.2C808.9,309.6,809.1,311.3,809.3,313.4z M807.3,301.4h6.9
			c0.1-0.5,0.2-1.2,0.3-1.9h-6.6C807.7,300.2,807.5,300.8,807.3,301.4z M812.8,312l-1.8,0.4c-0.3-1.4-0.7-2.8-1.2-4.1l1.6-0.5
			C812,309,812.4,310.5,812.8,312z M815.8,310.7l-1.6,0.6c-0.3-1.2-0.7-2.3-1.1-3.4l1.4-0.3C815,308.7,815.5,309.7,815.8,310.7z"/>
		<path class="st5" d="M826,295c-0.2,0.3-0.3,0.6-0.5,0.9h5.2v1.6h-2.8c0.2,0.5,0.4,1,0.6,1.6l-2.1,0.2c-0.1-0.6-0.3-1.2-0.4-1.7
			h-1.6c-0.6,0.7-1.2,1.3-1.9,1.9l-1.6-1c1.6-1.1,2.6-2.3,3.3-3.6L826,295z M830.7,305.8h-6.2v8.4h-1.8v-14.6h8V305.8z M828.9,302.1
			V301h-4.4v1.1H828.9z M828.9,304.3v-1.1h-4.4v1.1H828.9z M839.4,299.5V312c0,0.7-0.2,1.3-0.5,1.6c-0.3,0.3-0.8,0.5-1.6,0.5h-2
			l-0.3-1.4h-8.6v-6.1h9v5.5l1.4,0.1c0.5,0,0.7-0.3,0.8-0.9v-5.6h-6.2v-6.2h0.9H839.4z M833.8,309v-1h-5.6v1H833.8z M833.8,310.3
			h-5.6v1.1h5.6V310.3z M834.6,295c-0.1,0.3-0.3,0.6-0.4,0.9h6.1v1.6h-3.8c0.3,0.5,0.5,1,0.7,1.6l-2.1,0.2c-0.2-0.6-0.4-1.2-0.5-1.7
			h-1.3c-0.5,0.7-1,1.3-1.5,1.9l-1.6-1c1.3-1.1,2.1-2.3,2.6-3.6L834.6,295z M837.7,302.1V301h-4.4v1.1H837.7z M837.7,303.2h-4.4v1.1
			h4.4V303.2z"/>
		<path class="st5" d="M852.4,306.7c-0.3,0.4-0.9,0.9-1.7,1.3l-0.7-1c1-0.5,1.6-1.1,1.7-1.9h-1.3v-2.5h2.6v2.1
			C853,305.5,852.8,306.1,852.4,306.7z"/>
		<path class="st5" d="M702.3,320.8v1.5c-0.5,1.6-1,3.3-1.6,5.1c0.5,1,0.9,1.8,1.1,2.6c0.3,0.8,0.4,1.5,0.4,2c0,1.1-0.3,1.9-0.7,2.4
			c-0.5,0.6-1.5,0.8-3,0.8l-0.6-2c0.3,0.1,0.7,0.1,1,0.1c0.4,0,0.7-0.1,0.9-0.3c0.2-0.1,0.4-0.5,0.4-1c0-0.6-0.1-1.2-0.3-1.8
			c-0.2-0.7-0.7-1.6-1.3-2.6c0.7-2,1.2-3.6,1.6-5h-2.6v16.7h-2v-18.5L702.3,320.8L702.3,320.8z M707.4,320.2c-0.2,0.5-0.4,1-0.6,1.4
			h6.5v1.5c-1,1.4-2.1,2.5-3.1,3.3c1.1,0.6,2.6,1.1,4.3,1.7l-0.9,1.9c-2.2-0.8-3.9-1.6-5.1-2.3c-1.4,0.9-3.4,1.7-5.8,2.3l-0.9-1.7
			c2-0.5,3.7-1.1,5-1.7c-0.7-0.5-1.4-1.2-2.1-2.1c-0.5,0.5-1.1,1-1.8,1.5l-1.1-1.5c0.9-0.6,1.6-1.3,2.3-2c0.5-0.5,0.9-1.3,1.3-2.4
			L707.4,320.2z M713,332.5h-3.8v2.3h4.5v1.8h-4.5v2.6h-1.9v-2.6h-5.2l1-5.9h4.3v-2h1.9v2h3.8L713,332.5L713,332.5z M707.4,332.5
			h-2.7l-0.3,2.3h3V332.5z M708.6,325.5c0.7-0.5,1.4-1.2,2.2-2.1h-4.6C707.1,324.3,707.8,325,708.6,325.5z"/>
		<path class="st5" d="M722.1,320.6c-0.5,1.6-1.1,3-1.6,4.2V339h-1.9v-11c-0.6,0.8-1.2,1.7-1.9,2.5l-0.7-2.3
			c0.9-1.1,1.7-2.3,2.4-3.5c0.7-1.1,1.3-2.7,2-4.7L722.1,320.6z M734,321.6c-1,0.3-2.1,0.5-3.1,0.7c0,1.8,0.1,3.4,0.1,4.8h3.9v1.8
			h-3.8c0.1,2.1,0.4,3.7,0.7,4.9c0.5,2.1,0.9,3.1,1.4,3.1c0.3,0,0.6-1,1-3l1.6,1.6c-0.6,2.4-1.5,3.6-2.5,3.6c-0.7,0-1.4-0.4-1.9-1.1
			c-0.6-0.7-1.1-2-1.5-4c-0.3-1.2-0.5-2.9-0.7-5h-4.3v4.7c1.2-0.3,2.5-0.6,3.7-1v1.8c-2,0.7-4.3,1.3-7,1.9l-0.5-2.1
			c0.6-0.1,1.2-0.2,1.8-0.3v-12.6c3.8,0,7.2-0.5,10.2-1.2L734,321.6z M729.5,336.9v1.9h-8.4v-1.9H729.5z M729,322.6
			c-1.3,0.2-2.6,0.3-4,0.4v4h4.2C729,325.7,729,324.2,729,322.6z"/>
		<path class="st5" d="M741.3,327.6l-1.6,1.6c-0.7-0.7-1.6-1.5-2.8-2.3l1.5-1.4C739.5,326.2,740.5,326.9,741.3,327.6z M741.5,322.4
			l-1.6,1.6c-0.7-0.7-1.6-1.5-2.9-2.3l1.5-1.4C739.7,320.9,740.7,321.6,741.5,322.4z M741.6,331.3c-0.8,3-1.7,5.7-2.8,8l-1.6-1.8
			c0.8-1.7,1.7-4.2,2.6-7.4L741.6,331.3z M745.1,321.2V320h1.8v1.2h3.9V320h1.8v1.2h3.4v1.5h-3.4v1.2h3v1.5h-3v1.2h3.7v1.6h-6.6v1.1
			h5.3v5.2h1.2v1.6H755v1.5c0,0.5-0.2,1-0.5,1.3s-0.7,0.4-1.2,0.4h-3l-0.3-1.6l2.6,0.1c0.4,0,0.6-0.3,0.6-0.7v-1h-8.6v3.4h-1.9v-3.4
			h-1.5v-1.6h1.5v-5.2h5.2V328h-6.6v-1.6h3.8v-1.2h-2.9v-1.5h2.9v-1.2h-3.4V321h3.4V321.2z M747.9,331.8v-1.2h-3.3v1.2H747.9z
			 M747.9,334.3v-1.2h-3.3v1.2H747.9z M750.9,322.7H747v1.2h3.9V322.7z M750.9,326.5v-1.2H747v1.2H750.9z M749.8,331.8h3.4v-1.2
			h-3.4V331.8z M753.2,334.3v-1.2h-3.4v1.2H753.2z"/>
		<path class="st5" d="M763.5,325.1v1.4c-0.7,1.2-1.6,2.4-2.6,3.6h2.6v1.2c-0.3,1.3-0.6,2.4-1,3.1c0.8,0.9,1.5,1.4,2,1.6
			c0.4,0.3,1.1,0.4,2,0.5c1,0.1,3,0.2,6,0.2c2.2,0,3.8,0,4.9-0.1l-0.3,2c-5.8,0-9.3-0.1-10.6-0.2c-1.2-0.2-2.1-0.4-2.8-0.7
			c-0.6-0.3-1.3-0.8-2-1.7c-0.6,1-1.3,2-2.3,3.1l-1.4-1.5c1.1-1.1,1.8-2,2.3-2.9c0.4-0.5,0.8-1.5,1.3-3h-3v-1.6
			c0.9-0.9,1.8-2,2.7-3.4h-3V325h5.2V325.1z M762.8,323.3l-1.3,1.3c-0.5-1-1.3-2-2.2-3.1l1.2-1.2
			C761.5,321.3,762.2,322.3,762.8,323.3z M775.7,320.7v1.5c-1,0.7-2.2,1.4-3.5,2c0.3,0.1,0.5,0.2,0.8,0.3l-0.3,0.3h3.5v9.2
			c0,0.6-0.2,1.1-0.5,1.4s-0.7,0.4-1.2,0.4H773l-0.4-1.7l1.2,0.1c0.4,0,0.6-0.3,0.6-0.7v-1.2h-2.9v3.3h-1.8v-3.3h-2.8v3.5H765v-11.1
			h4.8c-1-0.4-2.1-0.7-3.4-1.2l1.2-1c0.9,0.3,1.8,0.5,2.6,0.8c0.8-0.3,1.6-0.6,2.5-1h-8.3v-1.6L775.7,320.7L775.7,320.7z
			 M769.6,327.9v-1.6h-2.8v1.6H769.6z M769.6,330.9v-1.5h-2.8v1.5H769.6z M771.4,327.9h2.9v-1.6h-2.9V327.9z M771.4,330.9h2.9v-1.5
			h-2.9V330.9z"/>
		<path class="st5" d="M797.7,324.8h-5.8c0.2,3,0.6,5.4,1.2,7.1c1-1.4,1.9-3.3,2.7-5.6l1.8,0.8c-1.2,3.2-2.4,5.5-3.6,7
			c0.9,1.8,1.6,2.8,2,2.8c0.2,0,0.5-1,0.8-2.9l1.6,1.1c-0.5,2-0.9,3.2-1.3,3.6c-0.3,0.3-0.6,0.5-0.9,0.5c-0.9,0-1.8-0.5-2.7-1.5
			c-0.5-0.5-0.9-1.1-1.2-1.8c-1.3,1.2-3,2.3-5,3.3l-1.2-1.8c2.2-1,3.9-2.1,5.3-3.4c-0.3-0.7-0.5-1.4-0.7-2.2c-0.4-1.8-0.7-4-0.9-6.7
			h-7v2.5h5.8c-0.1,3.8-0.2,6.2-0.5,7.2c-0.3,1.2-1,1.8-2.1,1.8h-2.8l-0.3-2c1.4,0.1,2.5,0.2,3.1,0.2c0.2,0,0.3-0.3,0.4-0.9
			c0.1-0.7,0.1-2.2,0.1-4.3h-3.8c0,1.5-0.2,3-0.4,4.6c-0.4,1.9-1,3.8-1.8,5.7l-1.7-1.5c0.8-1.5,1.4-3.1,1.7-4.8
			c0.2-1.7,0.4-3.3,0.4-4.8v-5.6h8.9c0-0.9,0-1.9,0-2.9h2c0,1.1,0,2,0,2.9h3c-0.5-0.5-1.2-1.1-2.1-1.7l1.3-1.2
			c1,0.6,1.8,1.2,2.5,1.9l-1.1,1.1h2.3V324.8z"/>
		<path class="st5" d="M808.4,323.4V320h2.1v3.4h8.2v2h-6.3c0.7,1.5,1.6,2.9,2.6,4.2c1,1.3,2.5,2.8,4.4,4.3l-1.4,1.8
			c-2-1.7-3.7-3.5-4.9-5.3c-1-1.4-1.9-3.1-2.6-5h-0.1v8.3h4.8v2h-4.8v3.7h-2.1v-3.7h-4.5v-2h4.5v-8.3h-0.1c-0.6,1.8-1.3,3.3-1.9,4.3
			c-1.1,2-2.9,4.2-5.4,6.4l-1.1-2c1.8-1.6,3.2-3.1,4.2-4.7c0.8-1.1,1.5-2.5,2.2-4.1h-5.8v-2h8V323.4z"/>
	</g>
</g>
<polygon class="st5" points="939.2,227.1 904.1,190.6 904.1,263.5 "/>
<polygon class="st6" points="514.3,31.5 371.9,422.6 600,422.6 600,31.5 "/>
<rect x="310.8" y="52.5" class="st2" width="272.8" height="349.2"/>
<g class="st3">
	<path class="st4" d="M423,205.9v5.3h-7.4v28.3c0,2.9-1.6,4.4-4.8,4.4h-6.3l-1.1-5.8c3,0.3,4.6,0.4,5,0.4c0.8,0,1.2-0.4,1.2-1.3v-26
		H402v1.4h-19.9v-4.8h7.3c-0.3-1.5-0.6-3-1-4.2l6.5-0.5c0.3,1.6,0.6,3.1,0.9,4.7h5.4v-1.9L423,205.9L423,205.9z M399.9,214.7v4.6
		h-15.8v-4.6H399.9z M399.9,221.4v4.5h-15.8v-4.5H399.9z M400.1,243.7h-5.3V242h-5.4v2.1h-5.3v-15.8h16L400.1,243.7L400.1,243.7z
		 M394.8,237.4v-4.5h-5.4v4.5H394.8z"/>
	<path class="st4" d="M433.1,211.5v-7.9h5.4v7.9h4.2v5.1h-4.2v5.7c1.4-0.5,2.8-1,4.2-1.6l0.4,5.3c-1.5,0.7-3,1.3-4.6,1.9v11.8
		c0,2.8-1.5,4.2-4.4,4.2h-5.3l-1.1-5.6c2.6,0.3,4,0.4,4.2,0.4c0.7,0,1-0.4,1-1.3v-7.6c-1.7,0.5-3.5,1.1-5.3,1.5l-0.5-6
		c2-0.3,3.9-0.7,5.8-1.3v-7.4h-5.4v-5.1L433.1,211.5L433.1,211.5z M466.5,209.2c-5.8,1.8-11.4,2.9-16.9,3.3v1.8
		c0,0.8,0.5,1.2,1.6,1.2h8.6c0.8,0,1.4-0.1,1.9-0.4c0.4-0.3,0.6-1.4,0.7-3.3l5.8,1.4c-0.5,4.8-2.1,7.2-5,7.2h-13.5
		c-2.6,0-4.2-0.5-4.8-1.6c-0.7-0.9-1-2.2-1-3.6v-10.9h5.6v3.2c5.7-0.4,10.6-1.5,14.8-3.4L466.5,209.2z M466.2,244.1h-5.6V242h-10.8
		v2.1h-5.6v-21.5h22V244.1z M460.6,230.2V227h-10.8v3.2H460.6z M460.6,237.7v-3.3h-10.8v3.3H460.6z"/>
	<path class="st4" d="M477.8,211v-7.9h5.1v7.9h3.3v5.1h-3.3v2.8c1.9,1.5,3.4,2.8,4.4,4l-2.6,4.2c-0.5-0.9-1.1-1.8-1.8-2.7v20.1h-5.1
		V226c-1,2.9-2.2,5.4-3.5,7.8l-2.4-6c2.6-3.6,4.3-7.5,5.2-11.7h-4.7V211H477.8z M494.8,236c-2,3.1-4.5,5.6-7.6,7.6l-2.8-4.4
		c2.5-1.6,4.6-3.6,6.3-5.8L494.8,236z M513.3,204.3v4.2h-7.7v2.2h6.1v10.9h-24.4v-10.9h5.6v-2.2h-7v-4.2H513.3z M513.3,228.8v4.2
		h-11.2v6.8c0,2.8-1.3,4.2-3.7,4.2h-4.2l-0.7-5.1c1.4,0.1,2.2,0.2,2.5,0.2c0.7,0,1-0.3,1-1V233h-10.9v-4.2H513.3z M511.4,223.3v3.7
		h-23.6v-3.7H511.4z M494,214.4h-2.3v3.9h2.3V214.4z M500.5,208.6H498v2.2h2.4v-2.2H500.5z M500.6,214.4H498v3.9h2.6V214.4z
		 M513.6,239.3l-3.7,3.9c-1.9-2.2-4-4.3-6.5-6.3l3-3.4C509,235.3,511.5,237.2,513.6,239.3z M507.3,214.4h-2.7v3.9h2.7V214.4z"/>
</g>
<g>
	<path class="st6" d="M357.4,270.4c-0.2,0.7-0.3,1.3-0.5,1.8h1.9v-2.6h2v2.6h4.3v1.8h-4.3v2.2h4.7v1.8h-4.7v2.1h4.2v5.6
		c0,0.7-0.2,1.2-0.5,1.5s-0.7,0.5-1.2,0.5h-1.6l-0.4-1.8l1.2,0.1c0.4,0,0.6-0.3,0.6-0.7V282h-2.3v7h-2v-7h-2.5v5.9h-1.9v-7.7h4.3
		V278h-5.2v-1.8h5.2V274h-2.6c-0.3,0.7-0.6,1.4-1,2l-1.7-1.1c0.9-1.5,1.6-3.1,2-4.8L357.4,270.4z M368.5,271.2v13.3h-2v-13.3H368.5z
		 M371.9,269.6v17c0,0.7-0.2,1.2-0.5,1.4c-0.3,0.3-0.9,0.5-1.7,0.5h-2.3l-0.4-1.9c0.9,0.1,1.6,0.2,2.1,0.2s0.8-0.2,0.8-0.5v-16.7
		H371.9z"/>
	<path class="st6" d="M390.9,275.7v1.9h-5.6v3.1h6.1v1.8h-6.1v3.9c1,0.1,2.3,0.2,3.9,0.2c1.4,0,2.9,0,4.3-0.2l-0.3,2.1
		c-5,0-8.2-0.2-9.5-0.5c-1.1-0.2-2.2-0.7-3.3-1.5c-0.6-0.4-1.2-1-1.6-1.6c-0.7,1.3-1.7,2.6-3,3.9l-1.4-1.7c1.3-1.2,2.2-2.4,2.8-3.5
		c0.6-1.1,1.1-2.6,1.5-4.4l2,0.3c-0.3,1.3-0.7,2.5-1,3.4c0.6,1.1,1.4,1.9,2.4,2.4c0.4,0.3,0.9,0.5,1.4,0.7v-8.4h-5.9v-1.9
		L390.9,275.7L390.9,275.7z M385.4,271.5h8v5.1h-2v-3.2H377v3.2h-2v-5.1h8.2c-0.3-0.5-0.5-1-0.8-1.6l2.2-0.3
		C384.9,270.2,385.1,270.8,385.4,271.5z"/>
	<path class="st6" d="M400.6,269.7c1.3,1.1,2.4,2.3,3.4,3.5l-1.4,1.3c-1-1.4-1.9-2.4-2.6-3.1c-0.7,1.1-1.5,2.2-2.3,3.3h5.2v1.7h-2.3
		v1.7h2.9v1.7h-2.9v6.1c1-0.3,2-0.5,3-0.9v1.8c-2.3,0.8-4.8,1.3-7.5,1.8l-0.3-1.9c1-0.1,2-0.2,3-0.4v-6.5h-3v-1.7h3v-1.7h-2.1v-0.7
		c-0.2,0.3-0.4,0.5-0.7,0.8l-0.7-2.1c1.3-1.3,2.5-2.9,3.6-4.8h0.8h0.9V269.7z M398.2,285.2l-1.7,0.2c-0.1-1.8-0.3-3.3-0.6-4.3
		l1.4-0.1C397.7,282,398,283.4,398.2,285.2z M403.4,281.1c-0.1,1.2-0.4,2.4-0.7,3.4l-1.5-0.5c0.4-1,0.6-2.1,0.7-3.3L403.4,281.1z
		 M407.2,273.9l-1.7,0.7c-0.7-1.4-1.4-2.7-2.3-3.8l1.7-0.6C405.8,271.5,406.6,272.7,407.2,273.9z M410,269.6v5.3h4v11.7
		c0,0.7-0.2,1.2-0.5,1.5s-0.7,0.5-1.2,0.5h-2.9l-0.4-1.8l2.6,0.1c0.4,0,0.6-0.3,0.6-0.7v-2h-6.1v4.7h-1.9v-14h3.9v-5.3L410,269.6
		L410,269.6z M412.2,278.8v-2.2h-6.1v2.2H412.2z M412.2,282.6v-2.3h-6.1v2.3H412.2z M414.7,270.8c-0.6,1.5-1.3,2.9-2.1,3.9l-1.7-1.2
		c0.8-1,1.6-2.1,2.3-3.4L414.7,270.8z"/>
	<path class="st6" d="M422.7,270c-0.3,0.6-0.6,1.1-0.8,1.6h4.7c-0.3-0.6-0.7-1.1-1-1.6l2.1-0.3c0.3,0.6,0.7,1.2,1,1.9h6.8v1.6h-6.9
		v1.2h6.2v1.5h-6.2v1.2h6.2v1.5h-6.2v1.3h7.2v1.6h-16.4v-5.9c-0.5,0.7-1,1.2-1.6,1.7l-1.3-1.6c1.9-1.8,3.4-3.8,4.3-6L422.7,270z
		 M434.6,288.9h-1.9V288h-11.8v0.9H419v-6.3h15.6V288.9z M432.7,286.2v-2h-11.8v2H432.7z M426.6,273.2h-5.4v1.2h5.4V273.2z
		 M426.6,275.8h-5.4v1.2h5.4V275.8z M426.6,278.5h-5.4v1.3h5.4V278.5z"/>
	<path class="st6" d="M446.4,276.3h-2.2l1,0.4c-0.5,0.7-0.9,1.3-1.4,1.8c0.4,0,0.8-0.1,1.2-0.1c0.3-0.4,0.7-0.8,1-1.2l1.6,0.6
		c-1.2,1.3-2.4,2.4-3.6,3.3c0.6,0,1.1-0.1,1.6-0.2c-0.1-0.3-0.1-0.5-0.1-0.8l1.2-0.2c0.3,0.8,0.5,1.7,0.7,2.6l-1.5,0.1
		c0-0.2-0.1-0.4-0.1-0.7c-1.1,0.2-2.6,0.4-4.5,0.5l-0.3-1.3c0.4,0,0.8,0,1.2,0c0.5-0.4,1.1-0.9,1.7-1.4c-0.8,0.1-1.6,0.2-2.5,0.3
		l-0.2-1.2c0.4,0,0.7,0,1.1-0.1c0.5-0.6,1-1.4,1.5-2.4H440v12.6h-1.8v-18.5h8.2L446.4,276.3L446.4,276.3z M444.6,272.6v-0.9H440v0.9
		H444.6z M444.6,275v-1.1H440v1.1H444.6z M442.9,283v1.2h2.1v-1.3h1.6v2.3c0,0.9-0.4,1.6-1.1,2.2c-0.6,0.5-1.6,0.9-3,1.2l-0.8-1.4
		c1.3-0.2,2.2-0.4,2.6-0.7c0.4-0.3,0.6-0.5,0.7-0.9h-3.6V283H442.9z M456.2,270.4v16.5c0,0.7-0.2,1.2-0.6,1.6
		c-0.4,0.3-0.9,0.5-1.7,0.5h-1.4l-0.4-1.9l1.5,0.1c0.5,0,0.7-0.3,0.7-0.8v-10h-4.6l1,0.3c-0.5,0.8-0.9,1.5-1.4,2.1
		c0.5,0,1-0.1,1.4-0.1c0.3-0.4,0.5-0.7,0.8-1.1l1.6,0.6c-0.9,1.1-1.8,2.2-2.8,3c0.6-0.1,1.1-0.1,1.5-0.3c-0.1-0.2-0.2-0.5-0.3-0.7
		l1.1-0.3c0.5,0.8,0.8,1.6,1.1,2.3l-1.4,0.5c-0.1-0.3-0.1-0.5-0.2-0.7c-1.1,0.3-2.7,0.5-4.6,0.7l-0.3-1.3c0.4,0,0.8,0,1.2,0
		c0.5-0.5,0.9-0.9,1.3-1.4c-0.8,0.1-1.7,0.2-2.7,0.3l-0.3-1.2c0.3,0,0.5,0,0.8,0c0.6-0.8,1.1-1.6,1.5-2.5h-1.4v-5.9h0.9h7.7V270.4z
		 M449.3,282.9v1.7h1.9V283h1.6v3h-3.4v2.6h-1.6v-5.8L449.3,282.9L449.3,282.9z M454.3,272.6v-0.9h-4.7v0.9H454.3z M454.3,273.9
		h-4.7v1.1h4.7V273.9z"/>
	<path class="st6" d="M463.2,269.7c1,1.2,2,2.4,2.8,3.7l-1.3,1.2c-0.8-1.4-1.5-2.5-2.1-3.2c-0.7,1.2-1.5,2.3-2.4,3.4h4.7v1.6h-1.8
		v1.9h2v1.6h-2v6c0.7-0.2,1.3-0.4,2-0.6v1.4c0.7-0.6,1.2-1.3,1.6-2.1c0.1-0.1,0.1-0.2,0.2-0.4c-0.6-1.1-1.1-2.4-1.5-4.1l1.4-0.5
		c0.2,1.1,0.5,1.9,0.8,2.7v-0.1c0.3-1,0.4-2.3,0.5-4.1h-2.2v-1.3c0.7-1.5,1.3-3.1,1.8-4.8h-2.4v-1.4h3.9v1.4c-0.6,2-1.2,3.5-1.7,4.7
		h2.2c-0.1,2.4-0.3,4.3-0.6,5.8c-0.2,0.7-0.3,1.3-0.5,1.8c0,0.1,0,0.1,0.1,0.1c0.6,0.8,1.3,1.3,2.1,1.7c0.4,0.2,0.9,0.3,1.6,0.4
		v-1.8h-2.7V283h2.7v-1.5H470V280h2.4v-1.2h-2.3v-1.5h2.3v-1.6h-2.9v-1.4h2.9v-1.6h-2.3v-1.5h2.3v-1.6h1.6v1.6h2.9v3.1h0.9v1.4H477
		v3.1h-2.9v1.2h3.2v1.6h-3.2v1.5h3.4v1.6h-3.4v2c0.1,0,0.3,0,0.4,0c1.1,0,2.2,0,3.4-0.2l-0.3,1.8c-3.9,0-6.4-0.3-7.4-0.8
		c-0.7-0.3-1.4-0.8-2.1-1.6c-0.6,1-1.4,2-2.6,3.1l-0.9-1.7c0,0,0-0.1,0.1-0.1c-1.8,0.6-3.7,1-5.8,1.4l-0.3-1.8c1-0.1,2-0.2,3-0.4
		V280h-2.7v-1.6h2.7v-1.9H460v-1.1c-0.3,0.3-0.5,0.6-0.7,0.9l-0.6-1.9c1.1-1.2,2.2-2.7,3.1-4.5h0.8h0.6V269.7z M461.1,285.1
		l-1.5,0.2c0-1.8-0.2-3.2-0.4-4.2l1.2-0.1C460.7,282,460.9,283.4,461.1,285.1z M465.4,280.9c-0.1,1.5-0.2,2.7-0.3,3.7l-1.4-0.4
		c0.2-1,0.4-2.2,0.5-3.4L465.4,280.9z M474.1,274.2h1.3v-1.6h-1.3V274.2z M474.1,277.3h1.3v-1.6h-1.3V277.3z"/>
	<path class="st6" d="M482.6,273.3v-3.8h2v3.8h2.5v1.8h-2.5v4.1c0.8-0.4,1.5-0.8,2.3-1.3v2.1c-0.8,0.5-1.5,0.9-2.3,1.2v5.4
		c0,0.8-0.2,1.3-0.5,1.6c-0.3,0.3-0.9,0.5-1.7,0.5h-1.9l-0.4-2.1c0.7,0.1,1.3,0.2,1.7,0.2c0.5,0,0.8-0.2,0.8-0.5v-4.2
		c-0.9,0.3-1.7,0.6-2.6,0.9l-0.3-2.1c0.9-0.1,1.9-0.4,2.9-0.7v-4.9h-2.8v-1.8h2.8V273.3z M489.6,269.6v2.6c2.9-0.3,5.5-0.9,7.9-1.7
		l0.6,1.6c-2.2,0.8-5,1.4-8.4,1.8v1.4c0,0.4,0.2,0.7,0.7,0.7h5.1c0.4,0,0.7-0.1,0.8-0.2c0.2-0.1,0.3-0.8,0.4-2l1.9,0.6
		c-0.2,1.7-0.5,2.6-0.9,2.9s-1,0.4-2,0.4h-6.1c-0.6,0-1.1-0.1-1.4-0.5c-0.4-0.3-0.5-0.8-0.5-1.3v-6.3H489.6z M497.8,288.9h-1.9v-1
		h-6.2v1h-1.9v-10.1h10V288.9z M495.9,282.6v-2.1h-6.2v2.1H495.9z M495.9,286.2v-2.1h-6.2v2.1H495.9z"/>
	<path class="st6" d="M503.2,273.6v-4h1.9v4h2.1v1.7H505v0.8c0.8,1,1.5,2.1,2.3,3.2l-1,1.5c-0.5-1-0.9-1.8-1.3-2.5v10.6h-1.9v-9.6
		c-0.6,1.6-1.2,3.1-2,4.3l-0.7-2.1c1.1-1.8,2-3.8,2.7-6.2h-2.5v-1.7L503.2,273.6L503.2,273.6z M510.6,284.5c-1,1.3-2.1,2.5-3.4,3.4
		l-1.6-1.2c1.3-0.8,2.5-1.8,3.5-3L510.6,284.5z M519.8,281.8v1.6h-5.7v3.5c0,0.7-0.2,1.1-0.5,1.4s-0.8,0.4-1.6,0.4h-1.6l-0.3-1.8
		c0.5,0.1,1,0.2,1.4,0.2c0.5,0,0.7-0.1,0.7-0.4v-3.3h-5.6v-1.6L519.8,281.8L519.8,281.8z M519.6,270v1.6h-3.9v1.6h3.3v5.2h-11.4
		v-5.2h3.3v-1.6h-3.7V270H519.6z M518.7,279.3v1.6h-11v-1.6H518.7z M510.9,274.7h-1.6v2.3h1.6V274.7z M514.1,271.5h-1.6v1.6h1.6
		V271.5z M514.1,274.7h-1.6v2.3h1.6V274.7z M520,287l-1.6,1.1c-0.8-1-1.8-2.1-3.1-3.4l1.4-0.8C518,285.1,519.2,286.1,520,287z
		 M517.2,274.7h-1.6v2.3h1.6V274.7z"/>
	<path class="st6" d="M531.9,281.5c-0.3,0.4-0.9,0.9-1.7,1.3l-0.7-1c1-0.5,1.6-1.1,1.7-1.9h-1.3v-2.5h2.6v2.1
		C532.5,280.3,532.3,280.9,531.9,281.5z"/>
	<path class="st6" d="M380.4,301c-0.6,1.3-1.3,2.4-2,3.2v9.7h-1.9v-7.7c-0.5,0.5-1,0.9-1.6,1.4l-0.6-2.1c0.9-0.7,1.7-1.4,2.4-2.2
		c0.7-0.7,1.4-1.7,2.1-3L380.4,301z M380.7,295.8c-0.8,1.1-1.4,1.9-2.1,2.5c-0.8,0.7-1.8,1.4-3,2.1l-1-1.7c0.9-0.4,1.7-0.9,2.6-1.7
		c0.6-0.5,1.2-1.3,1.9-2.2L380.7,295.8z M391.8,295.2c-0.3,1.2-0.6,2.2-0.9,3c0.9,0.6,1.8,1.2,2.8,1.9l-1.2,1.8
		c-0.9-0.9-1.7-1.6-2.2-2.1c-0.5,0.8-1.1,1.7-1.9,2.6h0.1v2.9h4.3v1.9h-4.3v4.7c0.6,0.1,1.3,0.1,2.1,0.1c1.1,0,2.2-0.1,3.4-0.2
		l-0.3,2.1c-3.9,0-6.4-0.2-7.5-0.6c-0.9-0.2-1.7-0.8-2.6-1.7c-0.4-0.4-0.8-0.9-1.1-1.4c-0.5,1.2-1.2,2.4-2,3.6l-1.5-1.3
		c1-1.7,1.7-3.2,2.2-4.6c0.4-1.1,0.7-2.6,0.8-4.5l1.9,0.2c-0.2,1.8-0.4,3.2-0.7,4.2c0.5,1.2,1,2.1,1.8,2.6c0.4,0.4,0.9,0.7,1.4,0.9
		v-9.1h1.4l-1.2-1.5c0.9-0.9,1.6-1.8,2-2.7c0.4-0.8,0.8-2,1.1-3.4L391.8,295.2z M385.4,295.2c-0.3,1-0.5,1.9-0.8,2.6
		c0.8,0.6,1.6,1.2,2.4,1.9l-1.2,1.9c-0.8-0.9-1.5-1.7-2-2.1c-0.5,0.9-1.3,1.8-2.2,2.7l-1.3-1.6c1-0.8,1.7-1.7,2.2-2.5
		s0.9-1.8,1.2-3.1L385.4,295.2z"/>
	<path class="st6" d="M400.5,295.8v-1h1.6v1h3.8v2.4h1.2v1.4h-1.2v2.5h-3.8v1h3.5l-0.1-0.1c0.9-1.2,1.6-2.4,2-3.6
		c0.4-1.1,0.8-2.6,1.1-4.5l1.8,0.3c-0.2,1.1-0.4,2.1-0.6,2.9h4.7v1.7h-1.2c-0.2,3.9-0.7,6.8-1.4,8.7c-0.1,0.2-0.2,0.4-0.3,0.6
		c0.7,1,1.7,2.1,3,3.2l-1,1.8c-1.3-1-2.3-2.1-3.1-3.2c-0.8,1.2-1.9,2.2-3.1,3.2l-1.2-1.5c1.4-1,2.5-2.1,3.3-3.3
		c-0.8-1.5-1.4-3.5-2-6.1c-0.3,0.5-0.6,0.9-0.9,1.3l-0.8-0.9v3.1H402c-0.3,0.4-0.5,0.7-0.7,1h5.6v1.5h-1.7c-0.5,1-1.1,1.8-1.7,2.4
		c0.8,0.3,1.5,0.7,2.4,1.1l-1.1,1.4c-0.8-0.5-1.7-1-2.7-1.4c-1.5,0.9-3.4,1.4-5.6,1.4l-0.9-1.5c2.1,0,3.7-0.2,4.7-0.7
		c-1.1-0.4-2.2-0.8-3.4-1.1c0.4-0.5,0.9-1,1.3-1.6h-2.7v-1.5h3.7c0.2-0.3,0.5-0.7,0.7-1h-3.3v-3.6h3.7v-1h-3.8v-2.5h-1.2v-1.4h1.2
		v-2.4L400.5,295.8L400.5,295.8z M400.5,298.1v-1h-2.1v1H400.5z M400.5,299.5h-2.1v1.2h2.1V299.5z M400.5,304.3h-2.1v1.1h2.1V304.3z
		 M403.4,309.1h-3.1c-0.3,0.4-0.5,0.7-0.8,1c0.8,0.2,1.6,0.5,2.5,0.8C402.6,310.3,403.1,309.8,403.4,309.1z M402.2,298.1h2.1v-1
		h-2.1V298.1z M404.3,299.5h-2.1v1.2h2.1V299.5z M404.5,304.3h-2.3v1.1h2.3V304.3z M410.7,307.3c0.5-1.6,0.9-4.1,1-7.5h-2.4
		c0,0.1-0.1,0.2-0.1,0.3c-0.1,0.3-0.2,0.6-0.3,0.8C409.4,303.7,410,305.9,410.7,307.3z"/>
	<path class="st6" d="M418.7,298.6v-3.8h1.8v3.8h1.8v1.6h-1.8v4.1c0.6-0.3,1.2-0.7,1.8-1.2v2c-0.6,0.4-1.2,0.8-1.8,1.2v5.6
		c0,0.7-0.2,1.2-0.5,1.5s-0.8,0.5-1.6,0.5h-1.1l-0.4-2c0.4,0.1,0.8,0.2,1.1,0.2c0.5,0,0.7-0.2,0.7-0.5v-4.4
		c-0.6,0.3-1.3,0.5-1.9,0.7l-0.3-2.1c0.7-0.1,1.4-0.3,2.1-0.6v-5h-2.1v-1.6L418.7,298.6L418.7,298.6z M429.2,294.8v0.9h5.2v1.3h-5.2
		v1h6.5c-0.3,1.3-0.7,2.6-1.3,3.9l-1.9-0.5c0.4-0.5,0.7-1.2,1-1.9h-4.6v1.1l3.2-0.4l0.2,1.3l-3.4,0.4c0,0.3,0.3,0.5,0.8,0.5h4.8v1.4
		h-5.3c-0.6,0-1.1-0.1-1.5-0.3s-0.5-0.6-0.5-1.1v-0.2l-2.2,0.3l-0.2-1.3l2.4-0.3v-1.3h-2.6v3.9c0,1.6-0.1,3.3-0.4,5.1
		c-0.3,1.8-0.8,3.7-1.4,5.5l-1.5-1.3c0.6-1.5,1-3,1.3-4.6c0.2-1.7,0.3-3.2,0.3-4.6V298h4.6v-3.2H429.2z M435.3,304.5v1.5h-4.7
		c-0.1,0.1-0.3,0.3-0.4,0.3c0.4,0.5,0.8,1,1.1,1.4c1-0.3,2-0.8,2.9-1.5l1.1,1.1c-0.5,0.3-1.1,0.6-1.7,0.9c0.3,0.7,0.6,1.4,1,2
		s0.9,1.2,1.6,1.9l-1.1,1.4c-0.8-0.9-1.4-1.7-1.9-2.6c-0.4-0.6-0.7-1.4-0.9-2.2c-0.2,0.1-0.4,0.1-0.5,0.2c0.3,0.8,0.4,1.6,0.4,2.3
		c0,1-0.2,1.7-0.5,2.2c-0.4,0.5-1.4,0.7-3.2,0.7l-0.5-1.6c0,0,0.3,0.1,0.9,0.1s1-0.1,1.2-0.2c0.2-0.2,0.3-0.6,0.3-1.2
		c0-0.1,0-0.3,0-0.4c-0.7,0.5-1.2,0.8-1.8,1.1c-1,0.5-2.2,1-3.6,1.4l-0.8-1.4c1.4-0.4,2.7-0.8,3.8-1.3c0.8-0.4,1.5-0.8,2.1-1.3
		c0-0.1-0.1-0.3-0.1-0.4s-0.1-0.2-0.1-0.3c-0.6,0.4-1.1,0.7-1.6,0.9c-0.8,0.4-1.9,0.8-3.2,1.2l-0.7-1.2c1.3-0.3,2.4-0.7,3.3-1.1
		c0.6-0.3,1.1-0.5,1.6-0.9c-0.1-0.1-0.2-0.3-0.3-0.5c-1.1,0.6-2.4,1.1-3.8,1.5l-0.7-1.3c1.4-0.3,2.6-0.7,3.4-1
		c0.3-0.1,0.5-0.2,0.7-0.3H425v-1.5L435.3,304.5L435.3,304.5z"/>
	<path class="st6" d="M442.6,296c-1.1,1.4-2.5,2.6-4.1,3.7l-1.1-1.6c1.5-0.9,2.8-1.9,4-3.2L442.6,296z M442.6,300.9V300
		c-0.1,0.1-0.2,0.2-0.3,0.2l-1.1-1.4c0.9-0.6,1.6-1.2,2.2-1.8c0.5-0.5,0.9-1.2,1.3-2.2l1.8,0.1c-0.1,0.4-0.3,0.7-0.4,1.1h3.8v1.2
		c-0.4,0.7-0.8,1.3-1.2,1.8h2v8.1h-3.2c0,0.4-0.1,0.7-0.1,1.1h4.5v1.6h-4.5c1.1,0.7,2.2,1.4,3.4,2.2l-1,1.5c-1.4-1.2-2.5-2-3.3-2.5
		c-0.1,0.2-0.2,0.3-0.3,0.5c-0.8,1.1-2,2-3.7,2.6l-0.9-1.4c1.6-0.6,2.8-1.3,3.3-2.2c0.1-0.2,0.2-0.4,0.3-0.5H442v-1.6h3.7
		c0.1-0.3,0.1-0.7,0.1-1.1h-3.2v-6c-0.5,1-0.9,1.8-1.4,2.5v10.4h-1.8v-8.3c-0.4,0.4-0.9,0.8-1.3,1.2l-0.7-2.2c0.7-0.6,1.4-1.3,2-2
		c0.6-0.6,1.1-1.5,1.7-2.6L442.6,300.9z M446.7,299.1c0.4-0.4,0.9-1,1.3-1.6h-2.9c-0.1,0.2-0.2,0.3-0.3,0.4
		c-0.3,0.4-0.7,0.8-1.1,1.2H446.7z M445.8,302.4v-1.9h-1.6v1.9H445.8z M445.8,303.8h-1.6v1.9h1.6V303.8z M447.4,302.4h1.6v-1.9h-1.6
		V302.4z M449,303.8h-1.6v1.9h1.6V303.8z M456.9,301.6v1.9h-1.8v8.4c0,0.8-0.2,1.3-0.5,1.6c-0.3,0.3-0.8,0.5-1.6,0.5h-1.6l-0.4-2.1
		c0.6,0.1,1.2,0.2,1.6,0.2c0.5,0,0.7-0.2,0.7-0.5v-8h-2.1v-1.9h5.7V301.6z M456.5,296v1.9h-5.1V296H456.5z"/>
	<path class="st6" d="M476.2,303.6v5.5h-7.1v1h7.5v1.2h-7.5v1h8.8v1.4h-19.4v-1.4h8.8v-1h-7.4V310h7.4v-1h-7v-5.5h15.9V303.6z
		 M477.6,301.3v1.5h-18.8v-1.5H477.6z M476.2,295.3v5.2h-16v-5.2H476.2z M467.2,305.8v-0.9H462v0.9H467.2z M467.2,306.9H462v0.8h5.2
		V306.9z M474.3,297.3v-0.8h-12.2v0.8H474.3z M474.3,298.5h-12.2v0.8h12.2V298.5z M469.1,305.8h5.3v-0.9h-5.3V305.8z M474.4,306.9
		h-5.3v0.8h5.3V306.9z"/>
	<path class="st6" d="M488.1,294.8v3.3h1.9v-3.3h1.9v3.3h1.5c0.5-0.7,0.9-1.7,1.4-2.9l2,0.7c-0.4,0.8-0.8,1.6-1.2,2.1h3.1v1.7h-5.8
		l1.5,0.5c-0.3,0.5-0.6,0.9-0.9,1.3h4.6v1.6h-7.8v1.2h7.4v1.6h-7.4v1.2h8.5v1.6H492c0.9,0.8,1.8,1.4,2.5,1.8c1,0.5,2.4,0.9,4.2,1.3
		l-1.1,1.7c-2.1-0.6-3.7-1.3-4.7-1.9c-0.9-0.6-1.8-1.5-2.7-2.6v4.8h-2V309c-0.6,0.7-1.2,1.3-1.9,1.8c-1.2,0.9-3,1.8-5.4,2.7l-1-1.6
		c2.4-0.8,4.1-1.4,5.1-2.1c0.5-0.3,1-0.7,1.4-1.1h-6.7v-1.6h8.4v-1.2h-7.2v-1.6h7.2v-1.2h-7.7v-1.6h4.7c-0.2-0.4-0.5-0.9-0.8-1.3
		l1.3-0.5h-5.9V298h3c-0.3-0.7-0.6-1.4-1-2.2l1.9-0.7c0.4,0.8,0.7,1.8,1.1,2.9h1.5v-3.3h1.9V294.8z M491.2,301.6
		c0.4-0.5,0.8-1.2,1.1-1.8h-6c0.3,0.5,0.6,1.1,0.8,1.8H491.2z"/>
	<path class="st6" d="M505.8,295.4c-0.7,2-1.5,3.7-2.4,5.2c0.5,0,1.1-0.1,1.6-0.2c0.5-1,1-2,1.4-3.1l1.6,0.6c-1.5,3.3-3,5.9-4.6,8
		c1-0.1,2-0.2,2.7-0.4c-0.2-0.8-0.3-1.5-0.5-2.2l1.4-0.4c0.4,1.3,0.8,2.9,1.2,4.6l-1.6,0.4c-0.1-0.3-0.1-0.6-0.2-0.9
		c-1.3,0.3-3.1,0.6-5.4,0.8l-0.5-1.7c0.4,0,0.8,0,1.2,0c0.8-1.1,1.6-2.4,2.4-3.9c-1.1,0.2-2.3,0.3-3.5,0.5l-0.4-1.7
		c0.4,0,0.9-0.1,1.3-0.1c1-1.8,1.8-3.7,2.5-5.9L505.8,295.4z M502.8,308.8c-0.1,2.1-0.3,3.8-0.7,5.2l-1.7-0.5
		c0.4-1.5,0.7-3.2,0.8-4.9L502.8,308.8z M505.5,313.2l-1.6,0.1c0-2-0.2-3.5-0.3-4.6l1.4-0.2C505.2,309.7,505.4,311.2,505.5,313.2z
		 M508.2,311.7l-1.6,0.4c-0.2-1.2-0.5-2.4-0.8-3.5l1.4-0.4C507.6,309.2,507.9,310.4,508.2,311.7z M518.7,302.8v8.3h-3
		c1.3,0.3,2.6,0.8,3.9,1.4l-0.6,1.6c-1.5-0.8-3-1.3-4.7-1.7l0.6-1.2h-3l0.8,0.9c-1.6,0.9-3.1,1.6-4.7,2.1l-0.7-1.6
		c1.5-0.3,2.8-0.8,3.9-1.4h-2.8v-8.3L518.7,302.8L518.7,302.8z M512.5,296.1v-1.3h1.9v1.3h4.7v1.4h-4.7v0.9h4.4v1.3h-4.4v0.9h5.5
		v1.5h-12.5v-1.5h5.2v-0.9h-4.1v-1.3h4.1v-0.9H508v-1.4H512.5z M516.8,305.2v-1h-6.6v1H516.8z M516.8,307.5v-1.1h-6.6v1.1H516.8z
		 M516.8,308.7h-6.6v1h6.6V308.7z"/>
	<path class="st6" d="M404.1,321.5V320h2v1.6h7.9v1.7h-7.9v1.6h7.1v1.6h-7.1v1.8h8.7v1.8h-7.5c0.8,1.4,1.4,2.4,2.1,3.2
		c0.4-0.2,0.7-0.5,1-0.8c0.4-0.4,0.9-0.9,1.3-1.6l1.6,0.9c-0.5,0.8-1,1.5-1.5,1.9c-0.3,0.3-0.7,0.6-1.1,0.9c1,0.9,2.3,1.8,3.9,2.6
		l-0.9,2c-2.4-1.4-4.2-2.8-5.3-4.1c-1-1-2-2.7-3.1-5h-0.8c-0.4,0.6-0.8,1.1-1.2,1.5v4.8c1.2-0.3,2.5-0.7,3.8-1.1v1.9
		c-2.6,0.8-5.5,1.5-8.6,2l-0.3-2c1-0.1,2-0.2,3-0.4v-3.4c-1.2,0.9-2.8,1.8-4.8,2.8l-1.1-1.9c2.1-0.8,3.7-1.6,4.8-2.4
		c0.8-0.5,1.5-1.1,2.1-1.7h-6.8v-1.8h8.6v-1.8h-7V325h7v-1.6h-7.9v-1.7h8V321.5z"/>
	<path class="st6" d="M424.2,321.3v1.9h-2.9v4.2h2.5v1.9h-2.5v4.7c1-0.3,1.9-0.7,2.8-1v2.1c-2.1,0.9-4.5,1.8-7.2,2.5l-0.6-2.1
		c1.1-0.3,2.1-0.5,3.1-0.9v-5.3h-2.5v-1.9h2.5v-4.2h-2.7v-1.9L424.2,321.3L424.2,321.3z M434.7,320.8v11.7h-2.5v4.1
		c0,0.4,0.2,0.6,0.7,0.6h0.6c0.2,0,0.4-0.1,0.5-0.3c0.1-0.2,0.2-1.2,0.2-2.8l1.8,0.6c-0.1,2.1-0.4,3.3-0.7,3.6
		c-0.3,0.4-0.8,0.6-1.6,0.6h-1.6c-0.6,0-1-0.1-1.4-0.4c-0.3-0.3-0.5-0.8-0.5-1.3v-4.6h-1.7c-0.2,1.8-0.5,3.1-1.1,3.9
		c-0.7,1-1.8,2-3.4,2.8l-1.3-1.7c1.5-0.6,2.5-1.3,3-2c0.5-0.6,0.8-1.6,0.9-3.1H425v-11.7L434.7,320.8L434.7,320.8z M432.9,324.1
		v-1.6h-6.2v1.6H432.9z M432.9,327.4v-1.7h-6.2v1.7H432.9z M432.9,329.1h-6.2v1.8h6.2V329.1z"/>
	<path class="st6" d="M443.8,322c-0.7,0.4-1.9,0.8-3.5,1.2v1.6h3.1v1.7h-3v2.5h2.8v1.6h-2.8l0.1,2.3h3.8v-5.6h1.9v5.6h1.8v-6.5h-3.7
		V320h1.8v1.4h3.8v1.6h-3.8v1.8h3.8v8.1h4.1v-2.2h-3.1V329h3.1v-2.5h-3.1v-1.7h3.2v-2.1h-3.2V321h5.1l-0.2,12h1v1.8h-19.4V333h1.3
		l-0.2-11.3c1.4-0.2,3-0.7,4.6-1.5L443.8,322z M445.2,336.3c-1.7,1.1-3.8,2.1-6.3,3l-1.3-1.7c2.3-0.7,4.4-1.5,6.2-2.5L445.2,336.3z
		 M456.6,337.5l-1.2,1.9c-2-1.2-4-2.2-6.1-2.9l1.1-1.6C452.6,335.7,454.7,336.6,456.6,337.5z"/>
	<path class="st6" d="M469.4,321.3h7.9v1.6H474c-0.8,0.7-1.8,1.4-2.8,1.9c1.5,0.4,3,0.8,4.3,1.2l-0.9,1.3h2.6v1.6h-6.5v1.7h5.7v1.7
		h-5.7v1.5h5.1v1.6h-5.1v1.5h6.8v1.7h-16.2v-1.7h7.4v-1.5H464V334c-0.2,0.3-0.5,0.6-0.7,0.9l-1.5-1.3c0.6-0.7,1.1-1.4,1.5-2.1
		c0.3-0.7,0.7-1.5,0.9-2.5l1.7,0.7c-0.1,0.3-0.2,0.6-0.3,0.9h3.2v-1.7h-7.2v2.6c0,1.2-0.1,2.4-0.3,3.6c-0.3,1.3-0.7,2.6-1.3,3.9
		l-1.7-1.5c0.5-1,0.9-2,1.2-3c0.1-1.1,0.2-2.1,0.2-3v-4.1h1.7l-0.7-1.1c2.2-0.4,4-0.8,5.5-1.2c-1.6-0.4-3.3-0.7-4.9-1.1l0.7-1.1
		h-2.8v-1.6h8c-0.3-0.4-0.6-0.8-1-1.2l2.1-0.3C468.7,320.2,469,320.7,469.4,321.3z M469,324.1c0.1,0,0.2-0.1,0.3-0.1
		c0.9-0.3,1.8-0.7,2.5-1.2H463C465.1,323.3,467.1,323.7,469,324.1z M468.9,332.2H465c-0.1,0.1-0.1,0.3-0.2,0.4
		c-0.2,0.3-0.4,0.7-0.7,1.1h4.6v-1.5H468.9z M474.1,327.3c-1.7-0.5-3.4-1.1-5-1.6c-1.3,0.5-2.9,1-4.8,1.6H474.1z"/>
	<path class="st6" d="M485.5,320.7c-0.5,1.7-1.1,3.2-1.7,4.4v14h-1.9v-11c-0.5,0.7-1,1.4-1.6,2.1l-0.7-2.3c0.9-1.1,1.6-2.2,2.3-3.4
		c0.7-1,1.3-2.6,1.9-4.6L485.5,320.7z M490.4,321.7c0-0.6,0.1-1.1,0.1-1.7l2.1,0.2c0,0.5-0.1,1-0.2,1.5h5.6v1.6h-5.9
		c-0.1,0.5-0.2,1-0.3,1.5h5.2v11.8h1.5v1.6h-14.1v-1.6h1.7v-11.8h3.7c0.1-0.5,0.1-1,0.2-1.5h-4.9v-1.6H490.4z M495.3,327.9v-1.4
		h-7.1v1.4H495.3z M495.3,330.7v-1.4h-7.1v1.4H495.3z M495.3,333.7v-1.5h-7.1v1.5H495.3z M495.3,336.6v-1.5h-7.1v1.5H495.3z"/>
</g>
<polygon class="st6" points="629.2,227.1 594.1,190.6 594.1,263.5 "/>
<polygon class="st7" points="204.3,31.5 61.9,422.6 290,422.6 290,31.5 "/>
<rect x="0.8" y="52.5" class="st2" width="272.8" height="349.2"/>
<g class="st3">
	<path class="st4" d="M88.2,207c-1.7,4.6-3.8,8.7-6.4,12.3h21.4c-0.6-0.9-1.2-1.8-1.7-2.7c-1.3-2.2-2.2-4.4-3-6.4h-9v-5.4h13.9
		c0.7,3.6,1.9,6.6,3.6,9.1c1.8,2.6,4.2,5.1,7.3,7.4l-5.6,4.9c-0.9-0.9-1.8-1.9-2.6-2.8l-0.1,5.3c-0.3,7.2-1.2,11.5-2.9,13.2
		c-1.4,1.4-3.8,2.1-7.3,2.1h-4l-1.4-6.2c3,0.3,4.8,0.4,5.4,0.4c1.5,0,2.6-0.4,3.1-1.2c0.7-1.2,1.1-4.1,1.2-8.9l0.1-3.3h-8.1
		c-1.1,5.3-2.8,9.5-5.2,12.4c-2.5,3-5.6,5.3-9.2,6.9l-3.4-5.3c2.9-0.8,5.4-2.5,7.6-5c1.8-2,3.1-5,3.9-9h-5.9v-3.1
		c-1.3,1.5-2.6,3-4,4.3l-3.6-5.4c4.2-3.6,7.3-8.5,9.3-14.6L88.2,207z"/>
	<path class="st4" d="M122.7,232.5c-0.1,3.6-0.5,7.2-1.1,11.1l-4.7-0.5c0.9-3.1,1.5-6.8,1.8-10.7L122.7,232.5z M129.7,204.9
		c-1.8,4-3.4,7-4.8,9.1c1-0.1,2-0.2,3-0.4c1.1-1.8,2.1-3.7,3.1-5.6l4.6,2.8c-3,5.2-6.2,9.7-9.8,13.7c1.3-0.1,2.7-0.3,4-0.5
		c-0.3-0.9-0.5-1.8-0.8-2.6l3.3-0.9L132,220c3.3-4.1,5.8-9.6,7.4-16.6l5.6,0.9c-0.7,2.3-1.4,4.6-2.2,6.7h5.6
		c-0.4-1.8-1.1-3.8-2.2-5.9l4.7-1.3c1.4,2.2,2.5,4.3,3,6.2l-3.6,1h7.3v4.9h-6v3.9h5.3v4.5h-5.3v4h5.3v4.6h-5.3v4.4h6.7v5h-16.2v2.2
		h-5.3v-22.2c-0.6,0.9-1.2,1.7-1.8,2.4l-1.8-2.7c0.7,1.9,1.4,4.2,2.1,6.9l-4.4,1.6c-0.2-0.9-0.3-1.7-0.4-2.4
		c-4.1,1-8.2,1.8-12.2,2.4l-0.9-5.4c0.8,0,1.5,0,2.3,0c1.7-2,3.2-4.1,4.7-6.3c-2,0.3-4,0.5-6.3,0.7l-0.9-4.9c0.6,0,1.2,0,1.8,0
		c2.1-2.9,3.7-6.7,4.9-11.2L129.7,204.9z M129,242.1l-4.5,0.5c0-3.1-0.2-6.4-0.5-10l3.9-0.4C128.2,235,128.6,238.3,129,242.1z
		 M135.3,239.7l-4.2,1.6c-0.6-3.5-1.3-6.5-2.1-9l3.5-1C133.4,233.3,134.3,236.1,135.3,239.7z M146.8,215.9h-4.6v3.9h4.6V215.9z
		 M146.8,224.4h-4.6v4h4.6V224.4z M146.8,237.4V233h-4.6v4.4H146.8z"/>
	<path class="st4" d="M189.4,206.3h13.8v4.7h-7.1v2.7h6.9v4.7h-6.9v6.7h-20.4v-6.7h-5.3v4.4c0,8.1-1.1,15.2-3.3,21.1l-5.3-4.4
		c2-4.3,3-9.9,3-16.7v-16.5h18c-0.2-1-0.4-1.8-0.5-2.7l6.8-0.5C189.2,204.2,189.3,205.2,189.4,206.3z M199,226.7v4.7
		c-1.6,2.3-3.5,4.3-5.7,5.8c3.1,0.7,6.5,1.2,10.4,1.6l-3.1,5.9c-5.1-0.8-9.9-2-14.3-3.7c-3.8,1.4-8.4,2.5-13.8,3.2l-3.5-5.3
		c3.8-0.3,7.2-0.8,10.2-1.5c-1.8-1.2-3.6-2.5-5.3-4.1l3.3-1.8h-5.6v-4.9H199V226.7z M175.7,211h-5.3v2.7h5.3V211z M186,235.1
		c2-0.9,3.6-2.1,4.9-3.5h-11.6C181.5,233,183.7,234.2,186,235.1z M190.2,211h-8.5v2.7h8.5V211z M181.7,221h8.5v-2.7h-8.5V221z"/>
</g>
<g>
	<g>
		<path class="st7" d="M82.5,270.6v2c-2.2,1.7-4.6,3.4-7.5,4.9v9.3c0,0.5-0.2,0.9-0.4,1.2c-0.4,0.4-0.9,0.7-1.4,0.7h-3.3l-0.5-2.1
			c0.8,0.1,1.6,0.1,2.5,0.1c0.5,0,0.7-0.2,0.7-0.6v-9.9c2-0.8,4.2-2,6.5-3.6H65.8v-2H82.5z"/>
		<path class="st7" d="M90.9,270.1c-0.2,0.4-0.3,0.7-0.5,1h3.5v1.2c-0.6,0.9-1.2,1.6-1.7,2.2h2.6v12.4c0,0.5-0.1,0.9-0.4,1.2
			c-0.3,0.3-0.6,0.5-1.1,0.5H91l-0.4-1.8l2.1,0.1c0.3,0,0.4-0.2,0.4-0.5V284h-4.7c0,0.5-0.1,0.9-0.2,1.4c-0.3,1.2-0.7,2.4-1.2,3.5
			l-1.5-1.3c0.5-0.9,0.9-1.8,1.1-2.8c0.1-1,0.2-1.9,0.2-2.8v-6.9c-0.3,0.2-0.5,0.4-0.8,0.7l-0.4-2.1c1.7-1.1,2.9-2.5,3.6-4.1
			L90.9,270.1z M90,274.5c0.6-0.5,1.2-1.2,1.8-1.9h-2.4c-0.1,0.1-0.2,0.3-0.3,0.4c-0.4,0.5-0.8,1-1.4,1.5H90z M90,282.4v-2.5h-1.5
			v2.1c0,0.1,0,0.3,0,0.3H90V282.4z M90,278.4v-2.2h-1.5v2.2H90z M91.6,278.4h1.6v-2.2h-1.6V278.4z M93.2,282.4v-2.5h-1.6v2.5H93.2z
			 M98.5,278c-0.1,0.5-0.3,1-0.4,1.4h1.2v-2.1h1.8v2.1h3.4v1.7h-3.4v2.1h3.7v1.8h-3.7v3.8h-1.8V285h-3.8v-1.8h3.8v-2.1h-1.8
			c-0.3,0.5-0.6,1.2-1,1.8l-1.5-1.3c0.5-0.7,0.8-1.3,1.1-2c0.3-0.6,0.5-1.4,0.7-2.3L98.5,278z M104.3,270.6
			c-0.1,3.2-0.3,4.9-0.4,5.1c-0.1,0.4-0.3,0.7-0.6,0.8c-0.2,0.2-0.6,0.3-1.2,0.3c-0.7,0-1.3,0-1.7-0.1l-0.3-1.7
			c1,0.1,1.6,0.2,1.7,0.2s0.3-0.1,0.4-0.2s0.1-1,0.2-2.7h-2.1c-0.2,1.1-0.5,1.9-1,2.6c-0.7,1.2-1.9,2.1-3.5,2.6l-0.7-1.7
			c1.1-0.3,1.9-0.8,2.5-1.6c0.4-0.4,0.6-1.1,0.8-1.9h-2.6v-1.7L104.3,270.6L104.3,270.6z"/>
		<path class="st7" d="M111.6,275.4c-1.2,0.7-2.6,1.2-4.3,1.7l-0.7-1.8c1.5-0.3,3-0.9,4.7-1.6L111.6,275.4z M117.4,270.2
			c-0.3,0.4-0.5,0.7-0.7,1h8.3v1.3c-0.8,0.8-1.7,1.6-2.7,2.2l-1.2-1.1c0.5-0.2,1-0.5,1.6-1h-2.9c-0.3,0.5-0.7,1-1,1.4
			c2.4,0.5,4.6,1.2,6.6,1.9l-1,1.5c-0.2-0.1-0.4-0.2-0.7-0.3v8.5h-4.2c2,0.4,4,0.9,6.1,1.6l-0.7,1.7c-2.1-0.8-4.3-1.5-6.7-1.9
			l0.7-1.4h-5.4l1,1.2c-2.2,0.9-4.4,1.6-6.6,2l-0.8-1.7c2.4-0.3,4.4-0.8,6.2-1.5H109V277h3.9l-0.9-1.2c1.8-0.4,3.3-1.1,4.3-1.9
			c0.5-0.4,0.9-0.8,1.3-1.4h-2.2c-0.6,0.5-1.4,1.1-2.6,1.8l-1.4-1.2c1.1-0.5,2-1.1,2.7-1.7c0.6-0.5,1.2-1.2,1.6-2L117.4,270.2z
			 M111.7,271.6l-1.2,1.7c-1-0.8-2.1-1.4-3.2-1.9l1-1.5C109.6,270.4,110.7,271,111.7,271.6z M121.7,279.4v-1h-10.8v1H121.7z
			 M121.7,281.8v-1.1h-10.8v1.1H121.7z M121.7,283.1h-10.8v1.2h10.8V283.1z M123.2,277c-1.9-0.7-3.8-1.3-5.6-1.8
			c-0.9,0.7-2,1.3-3.4,1.8H123.2z"/>
		<path class="st7" d="M131.6,276.7v-7.1h1.8v7.1h3.3v1.7h-3.3v0.4c1.1,0.9,2.2,2,3.3,3.2l-1,1.5c-0.9-1.1-1.7-2.1-2.3-2.8v8.2h-1.8
			V281c-0.1,0.2-0.2,0.5-0.3,0.7c-0.8,1.6-1.8,3-2.9,4.2l-0.7-2.1c1.6-1.6,2.8-3.4,3.8-5.4h-3.6v-1.7H131.6z M130.7,275.2l-1.7,0.4
			c-0.3-1.4-0.6-2.9-1-4.2l1.6-0.5C130,272.2,130.4,273.6,130.7,275.2z M136.8,271.3c-0.3,1.6-0.7,3.1-1.1,4.5l-1.6-0.6
			c0.4-1.1,0.8-2.6,1.1-4.3L136.8,271.3z M147,283.4l-2,0.3v5.2h-1.8v-5l-6.5,0.9l-0.3-1.8l6.7-1v-12.5h1.8v12.2l1.8-0.3L147,283.4z
			 M142,279.3l-1.4,1.4c-0.8-0.8-1.8-1.6-3.2-2.5l1.3-1.2C140,277.7,141.1,278.5,142,279.3z M142.5,274.2l-1.5,1.5
			c-0.8-0.8-1.8-1.6-3.3-2.5l1.4-1.3C140.4,272.7,141.6,273.5,142.5,274.2z"/>
		<path class="st7" d="M154.2,270.2c-0.8,2-1.6,3.7-2.5,5.2c0.7-0.1,1.3-0.2,2-0.4c0.5-0.9,0.9-1.8,1.4-2.8l1.7,0.7
			c-1.6,3.2-3.2,5.8-4.9,7.8c1.2-0.1,2.1-0.3,2.9-0.5c-0.2-0.8-0.4-1.6-0.6-2.3l1.4-0.4c0.5,1.3,0.9,2.9,1.3,4.6l-1.6,0.4
			c-0.1-0.3-0.1-0.5-0.2-0.8c-1.5,0.4-3.5,0.7-6.1,0.9l-0.5-1.8c0.4,0,0.9,0,1.3,0c0.9-1.1,1.8-2.4,2.7-4c-1.2,0.3-2.4,0.5-3.8,0.8
			l-0.4-1.7c0.4,0,0.8-0.1,1.2-0.1c1-1.8,1.9-3.8,2.7-6L154.2,270.2z M151.2,283.4c-0.1,2.1-0.4,3.8-0.8,5.2l-1.7-0.5
			c0.5-1.5,0.8-3.2,0.9-4.9L151.2,283.4z M153.9,287.9l-1.6,0.1c0-2-0.1-3.5-0.3-4.7l1.4-0.2C153.7,284.4,153.9,285.9,153.9,287.9z
			 M156.8,286.2l-1.6,0.4c-0.3-1.2-0.5-2.3-0.9-3.4l1.4-0.4C156.2,283.8,156.5,284.9,156.8,286.2z M166.4,286.5h1.3v1.7h-11.3v-1.7
			h1.3v-15.8h8.6L166.4,286.5L166.4,286.5z M164.6,275.9v-3.5h-5v3.5H164.6z M164.6,281.2v-3.7h-5v3.7H164.6z M164.6,286.5v-3.6h-5
			v3.6H164.6z"/>
		<path class="st7" d="M188.2,274.4h-5.8c0.2,3,0.6,5.4,1.2,7.1c1-1.4,1.9-3.3,2.7-5.6l1.8,0.8c-1.2,3.2-2.4,5.5-3.6,7
			c0.9,1.8,1.6,2.8,2,2.8c0.2,0,0.5-1,0.8-2.9l1.6,1.1c-0.5,2-0.9,3.2-1.3,3.6c-0.3,0.3-0.6,0.5-0.9,0.5c-0.9,0-1.8-0.5-2.7-1.5
			c-0.5-0.5-0.9-1.1-1.2-1.8c-1.3,1.2-3,2.3-5,3.3l-1.2-1.8c2.2-1,3.9-2.1,5.3-3.4c-0.3-0.7-0.5-1.4-0.7-2.2c-0.4-1.8-0.7-4-0.9-6.7
			h-7v2.5h5.8c-0.1,3.8-0.2,6.2-0.5,7.2c-0.3,1.2-1,1.8-2.1,1.8h-2.8l-0.3-2c1.4,0.1,2.5,0.2,3.1,0.2c0.2,0,0.3-0.3,0.4-0.9
			c0.1-0.7,0.1-2.2,0.1-4.3h-3.8c0,1.5-0.2,3-0.4,4.6c-0.4,1.9-1,3.8-1.8,5.7l-1.7-1.5c0.8-1.5,1.4-3.1,1.7-4.8
			c0.2-1.7,0.4-3.3,0.4-4.8v-5.6h8.9c0-0.9,0-1.9,0-2.9h2c0,1.1,0,2,0,2.9h3c-0.5-0.5-1.2-1.1-2.1-1.7l1.3-1.2
			c1,0.6,1.8,1.2,2.5,1.9l-1.1,1.1h2.3V274.4z"/>
		<path class="st7" d="M200.9,281.5c-0.3,0.4-0.9,0.9-1.7,1.3l-0.7-1c1-0.5,1.6-1.1,1.7-1.9H199v-2.5h2.6v2.1
			C201.5,280.3,201.3,280.9,200.9,281.5z"/>
		<path class="st7" d="M56.9,296.3v3.8h2.3V295H61v18.9h-1.8v-8.3h-1.4c-0.1,1.9-0.2,3.3-0.3,4c-0.2,1.4-0.7,2.7-1.5,4l-1.6-1.2
			c0.6-0.9,1-1.9,1.3-2.9c0.2-0.9,0.3-2.2,0.4-3.9h-1.6v-1.7h4.9v-2h-4.1v-5.6H56.9z M67.2,295.4c-0.3,0.4-0.5,0.7-0.7,1h6.4v1.4
			c-0.9,1.6-2.1,2.9-3.7,4.1c-2,1.6-4.3,2.6-7,3.2l-0.8-1.6c0.9-0.2,1.7-0.4,2.5-0.6c-0.5-0.5-1.2-1.1-1.9-1.7l1.2-0.7
			c0.9,0.7,1.7,1.3,2.4,1.8c0.4-0.2,0.9-0.4,1.3-0.7c-0.7-0.5-1.6-1.1-2.6-1.7l1.2-1.1c1.1,0.6,2.1,1.2,2.9,1.8
			c0.8-0.7,1.6-1.5,2.2-2.4h-5.3c-0.8,0.9-1.6,1.6-2.5,2.2l-1.3-1.6c1.7-1.1,3.1-2.3,3.9-3.6L67.2,295.4z M69.2,305.3v-2.2h2v2.2h2
			v1.9h-2v4.8c0,0.7-0.2,1.2-0.5,1.5S69.8,314,69,314h-2.3l-0.4-2c0.8,0.1,1.6,0.2,2.1,0.2s0.8-0.2,0.8-0.5v-4.4h-7.6v-1.9h7.6
			V305.3z M66.7,310.9l-1.9,1.3c-0.5-1-1.2-2.1-2.1-3.4l1.6-1C65.3,309,66.1,310,66.7,310.9z"/>
		<path class="st7" d="M80.1,300.6c-1.2,0.7-2.6,1.2-4.3,1.7l-0.7-1.8c1.5-0.3,3-0.9,4.7-1.6L80.1,300.6z M85.9,295.4
			c-0.3,0.4-0.5,0.7-0.7,1h8.3v1.3c-0.8,0.8-1.7,1.6-2.7,2.2l-1.2-1.1c0.5-0.2,1-0.5,1.6-1h-2.9c-0.3,0.5-0.7,1-1,1.4
			c2.4,0.5,4.6,1.2,6.6,1.9l-1,1.5c-0.2-0.1-0.4-0.2-0.7-0.3v8.5H88c2,0.4,4,0.9,6.1,1.6l-0.7,1.7c-2.1-0.8-4.3-1.5-6.7-1.9l0.7-1.4
			H82l1,1.2c-2.2,0.9-4.4,1.6-6.6,2l-0.8-1.7c2.4-0.3,4.4-0.8,6.2-1.5h-4.3v-8.7h3.9l-0.9-1.2c1.8-0.4,3.3-1.1,4.3-1.9
			c0.5-0.4,0.9-0.8,1.3-1.4h-2.2c-0.6,0.5-1.4,1.1-2.6,1.8l-1.4-1.2c1.1-0.5,2-1.1,2.7-1.7c0.6-0.5,1.2-1.2,1.6-2L85.9,295.4z
			 M80.2,296.8l-1.2,1.7c-1-0.8-2.1-1.4-3.2-1.9l1-1.5C78.1,295.6,79.2,296.2,80.2,296.8z M90.2,304.6v-1H79.4v1H90.2z M90.2,307
			v-1.1H79.4v1.1H90.2z M90.2,308.3H79.4v1.2h10.8C90.2,309.5,90.2,308.3,90.2,308.3z M91.7,302.2c-1.9-0.7-3.8-1.3-5.6-1.8
			c-0.9,0.7-2,1.3-3.4,1.8H91.7z"/>
		<path class="st7" d="M100.1,301.9v-7.1h1.8v7.1h3.3v1.7h-3.3v0.4c1.1,0.9,2.2,2,3.3,3.2l-1,1.5c-0.9-1.1-1.7-2.1-2.3-2.8v8.2h-1.8
			v-7.9c-0.1,0.2-0.2,0.5-0.3,0.7c-0.8,1.6-1.8,3-2.9,4.2l-0.7-2.1c1.6-1.6,2.8-3.4,3.8-5.4h-3.6v-1.7L100.1,301.9L100.1,301.9z
			 M99.2,300.4l-1.7,0.4c-0.3-1.4-0.6-2.9-1-4.2l1.6-0.5C98.5,297.4,98.9,298.8,99.2,300.4z M105.3,296.5c-0.3,1.6-0.7,3.2-1.1,4.5
			l-1.6-0.6c0.4-1.1,0.8-2.6,1.1-4.3L105.3,296.5z M115.5,308.6l-2,0.3v5.2h-1.8v-5l-6.5,0.9l-0.3-1.8l6.7-1v-12.5h1.8V307l1.8-0.3
			L115.5,308.6z M110.5,304.5l-1.4,1.4c-0.8-0.8-1.8-1.6-3.2-2.5l1.3-1.2C108.5,302.9,109.6,303.7,110.5,304.5z M111,299.4l-1.5,1.5
			c-0.8-0.8-1.8-1.6-3.3-2.5l1.4-1.3C108.9,297.9,110.1,298.7,111,299.4z"/>
		<path class="st7" d="M124.7,296.3c-0.9,1.9-1.8,3.4-2.6,4.5c-0.4,0.6-0.9,1.1-1.4,1.7h12.4c-0.3-0.4-0.7-0.8-0.9-1.2
			c-0.9-1.2-1.7-2.6-2.3-4.1h-4v-1.9h5.5c0.8,2.7,2.6,5.2,5.3,7.5l-1.3,1.9c-0.5-0.4-1-0.9-1.4-1.3c-0.2,5.1-0.5,8.1-0.9,9.1
			c-0.5,0.9-1.5,1.4-3.2,1.4c-1.3,0-2.3,0-2.9-0.1l-0.6-2.2c1.1,0.2,2.3,0.3,3.4,0.3c0.7,0,1.1-0.4,1.3-1.2c0.2-0.5,0.3-2.6,0.3-6.2
			h-4.9c-0.5,2.4-1.2,4.2-2.2,5.6c-1.1,1.6-2.8,3-5,4.2l-1.3-1.7c1.9-1,3.4-2.2,4.5-3.5c0.9-1.1,1.6-2.7,2-4.6h-4.4V303
			c-0.6,0.6-1.3,1.2-2,1.8l-1.2-2c1.2-0.7,2.3-1.8,3.3-3.3c0.8-1.1,1.6-2.5,2.4-4.3L124.7,296.3z"/>
		<path class="st7" d="M142,306.7V305h1.9v1.7h1.3c-0.2-0.5-0.4-1-0.7-1.5l1.6-0.3c0.2,0.5,0.4,1.1,0.7,1.7h0.7v1.7h-3.7
			c0,0.2-0.1,0.3-0.1,0.4c1,0.7,2.1,1.5,3.1,2.4l-1.2,1.7c-1.1-1.1-1.9-1.9-2.5-2.4c-0.1,0.1-0.1,0.3-0.2,0.4
			c-0.6,1-1.7,2.1-3.4,3.1l-1.6-1.4c1.5-0.7,2.6-1.6,3.2-2.4c0.3-0.4,0.6-1,0.7-1.7h-3.7v-1.7L142,306.7L142,306.7z M142,299v-4.2
			h1.8v4.2h3.5v1.6h-3.5l0,0c1.1,0.7,2.3,1.4,3.4,2.3l-1,1.5c-1-0.8-1.8-1.5-2.5-2v2.1H142v-3.6c-0.3,0.7-0.5,1.3-0.8,1.7
			c-0.4,0.8-1.1,1.5-2,2.4l-1.1-1.4c0.7-0.6,1.3-1.1,1.6-1.7c0.3-0.3,0.5-0.8,0.7-1.3h-2.3V299H142z M141.5,298l-1.5,0.7
			c-0.4-1.1-0.9-2.1-1.5-2.9l1.5-0.5C140.6,296.1,141.1,297,141.5,298z M147.1,295.8c-0.4,1.2-0.9,2.1-1.5,3l-1.4-1
			c0.5-0.7,1.1-1.6,1.6-2.5L147.1,295.8z M151.7,311.3c-1.2,1.1-2.6,2.1-4.3,2.9l-1.2-1.6c1.6-0.7,3-1.5,4.3-2.5L151.7,311.3z
			 M157.4,295.4v1.6h-4.2c-0.1,0.6-0.2,1.2-0.4,1.7h3.5v11.1h-8.2v-11.1h2.7c0.2-0.5,0.3-1.1,0.4-1.7h-4v-1.6H157.4z M154.5,301.9
			v-1.6h-4.6v1.6H154.5z M154.5,305v-1.6h-4.6v1.6H154.5z M154.5,306.5h-4.6v1.8h4.6V306.5z M157.4,312.6l-1.3,1.3
			c-0.9-0.8-2.2-1.7-3.9-2.6l1.2-1.2C155,311,156.3,311.8,157.4,312.6z"/>
		<path class="st7" d="M163.4,295.8v-1h1.6v1h4.3v1.4H165v1h3.7v1.6c0.8-0.7,1.5-1.4,2-2.1c0.5-0.6,0.9-1.6,1.3-2.8l1.8,0.2
			c-0.2,0.7-0.5,1.4-0.8,2h5.2v1.6h-1c-0.4,1.2-0.9,2.3-1.5,3.2c-0.3,0.4-0.5,0.7-0.8,1c0.9,0.6,2,1.2,3.4,1.6l-1,1.5
			c-1.5-0.6-2.8-1.2-3.6-1.9l-0.1,0.1c-1,0.7-2.3,1.3-3.7,1.8l-0.9-1.6c1.5-0.4,2.6-0.9,3.4-1.4l0,0c-0.7-0.7-1.3-1.5-1.8-2.4
			c-0.4,0.4-0.8,0.8-1.3,1.1l-0.8-1.1v1.8h-3.7c1.2,0.6,2.5,1.3,3.7,2l-0.8,1.3c-1.2-0.8-2.2-1.4-2.9-1.8v2.2h-1.6v-2.2
			c-1,0.8-2.1,1.5-3.3,2l-0.9-1.4c1.7-0.6,3-1.3,4-2.1h-3.5v-3.9h3.7v-1h-4.3v-1.4h4.5V295.8z M177.7,306.4v1.6h-7.8v1.2h7.1v1.6
			h-7.1v1.2h8.5v1.6h-19.3V312h3.8v-3.1h1.9v3.1h3.3v-3.9h-7.7v-1.6h17.3V306.4z M163.4,299.5h-2.1v1.3h2.1V299.5z M167.2,299.5H165
			v1.3h2.1L167.2,299.5L167.2,299.5z M173.8,301.7c0.3-0.3,0.5-0.6,0.8-1c0.4-0.6,0.7-1.3,1-2.1h-3.4l0,0c-0.1,0.2-0.2,0.3-0.3,0.4
			C172.4,300.1,173.1,300.9,173.8,301.7z"/>
		<path class="st7" d="M187.3,296.1v1.9h-2.7v4.2h2.2v1.9h-2.2v4.7c0.9-0.3,1.8-0.7,2.6-1v2.1c-2,0.9-4.3,1.8-6.8,2.5l-0.6-2.1
			c1-0.3,2-0.5,2.9-0.8V304h-2.3v-1.9h2.3V298h-2.5v-1.9H187.3z M198.4,295.5v10.2H194v2.1h4.5v1.7H194v2.4h5.4v1.7h-13.3v-1.7h5.9
			v-2.4h-4.1v-1.7h4.1v-2.1h-4.3v-10.2H198.4z M192,299.7v-2.5h-2.4v2.5H192z M192,301.3h-2.4v2.7h2.4V301.3z M194,299.7h2.5v-2.5
			H194V299.7z M196.5,301.3H194v2.7h2.5V301.3z"/>
		<path class="st7" d="M211.4,306.7c-0.3,0.4-0.9,0.9-1.7,1.3l-0.7-1c1-0.5,1.6-1.1,1.7-1.9h-1.3v-2.5h2.6v2.1
			C212,305.5,211.8,306.1,211.4,306.7z"/>
		<path class="st7" d="M57.5,323.5V320h2v3.5h4.3c0,7.3-0.1,11.6-0.3,13c-0.1,1-0.4,1.7-0.8,2.1c-0.4,0.4-1.2,0.6-2.4,0.6
			c-0.5,0-1,0-1.6-0.1l-0.3-2.1c0.6,0.1,1.3,0.2,2,0.2s1.1-0.4,1.2-1.3c0.1-1.1,0.2-4.5,0.3-10.4h-2.4c-0.1,2.6-0.4,4.8-0.8,6.7
			c-0.5,2.3-1.6,4.7-3.1,7.1l-1.6-1.5c1.3-1.9,2.3-4,2.9-6.2c0.4-1.4,0.6-3.5,0.7-6.1H54v-1.9h3.5V323.5z M72.8,339.2h-2v-1.5h-4.1
			v1.6h-2v-16.7h8L72.8,339.2L72.8,339.2z M70.9,335.8v-11.3h-4.1v11.3H70.9z"/>
		<path class="st7" d="M80.5,325v1.4c-0.7,1.2-1.5,2.4-2.6,3.7h2.5v1.2c-0.3,1.4-0.6,2.4-1,3.1c0.8,0.9,1.4,1.4,1.9,1.6
			c0.5,0.3,1.1,0.5,2,0.6c1,0.2,3,0.3,6,0.3c2.2,0,3.8,0,4.9-0.2l-0.3,2c-5.8,0-9.3-0.1-10.6-0.2c-1.2-0.2-2.1-0.4-2.8-0.8
			c-0.6-0.3-1.3-0.8-2-1.7c-0.6,1-1.3,2-2.3,3.1l-1.4-1.5c1.1-1.1,1.8-2,2.3-2.9c0.4-0.5,0.8-1.5,1.3-3h-2.9v-1.6
			c0.8-0.9,1.7-2.1,2.6-3.5H75V325H80.5z M79.8,323.1l-1.3,1.3c-0.5-0.9-1.2-2-2.1-3l1.2-1.2C78.5,321.2,79.2,322.2,79.8,323.1z
			 M86.4,321.6V320h1.9v1.6h5.3v1.7h-5.3v1.3H93v5.5h-4.7v0.4c2.1,0.9,3.9,1.8,5.7,3l-1.1,1.6c-1.5-1.1-3-2-4.6-2.8v3.9h-1.9v-4.1
			c-0.5,0.4-0.9,0.8-1.3,1c-1,0.7-2.2,1.4-3.7,2l-0.9-1.6c1.5-0.5,2.8-1.2,3.8-1.9c0.7-0.4,1.3-0.9,1.8-1.5h-4.5v-5.5h4.7v-1.3h-5.2
			v-1.7H86.4z M86.4,326.3h-2.9v2.2h2.9V326.3z M91.1,326.3h-2.9v2.2h2.9V326.3z"/>
		<path class="st7" d="M101.1,321v-1h1.6v1h3.8v2.4h1.2v1.4h-1.2v2.5h-3.8v1h3.5l-0.1-0.1c0.9-1.2,1.6-2.4,2-3.6
			c0.4-1.1,0.8-2.6,1.1-4.5l1.8,0.3c-0.2,1.1-0.4,2.1-0.6,2.9h4.7v1.7H114c-0.2,3.9-0.7,6.8-1.4,8.7c-0.1,0.2-0.2,0.4-0.3,0.6
			c0.7,1,1.7,2.1,3,3.1l-1,1.8c-1.3-1-2.3-2.1-3.1-3.2c-0.8,1.2-1.9,2.2-3.1,3.2l-1.2-1.5c1.4-1,2.5-2.1,3.3-3.3
			c-0.8-1.5-1.4-3.5-2-6.1c-0.3,0.5-0.6,0.9-0.9,1.3l-0.8-0.9v3.1h-4.1c-0.3,0.4-0.5,0.7-0.7,1h5.6v1.5h-1.7c-0.5,1-1.1,1.8-1.7,2.4
			c0.8,0.3,1.5,0.7,2.4,1.1l-1.1,1.4c-0.8-0.5-1.7-1-2.7-1.4c-1.5,0.9-3.4,1.4-5.6,1.4l-0.9-1.5c2.1,0,3.7-0.2,4.7-0.7
			c-1.1-0.4-2.2-0.8-3.4-1.1c0.4-0.5,0.9-1,1.3-1.6h-2.7v-1.5h3.7c0.2-0.3,0.5-0.7,0.7-1H97v-3.6h3.7v-1h-3.8v-2.5h-1.2v-1.4h1.2
			V321H101.1z M101.1,323.3v-1H99v1H101.1z M101.1,324.7H99v1.2h2.1V324.7z M101.1,329.5H99v1.1h2.1V329.5z M103.9,334.3h-3.1
			c-0.3,0.4-0.5,0.7-0.8,1c0.8,0.2,1.6,0.5,2.5,0.8C103.1,335.5,103.6,335,103.9,334.3z M102.7,323.3h2.1v-1h-2.1V323.3z
			 M104.8,324.7h-2.1v1.2h2.1V324.7z M105,329.5h-2.3v1.1h2.3V329.5z M111.2,332.5c0.5-1.6,0.9-4.1,1-7.5h-2.4
			c0,0.1-0.1,0.2-0.1,0.3c-0.1,0.3-0.2,0.6-0.3,0.8C109.9,328.9,110.5,331.1,111.2,332.5z"/>
		<path class="st7" d="M119.3,323.8V320h1.8v3.8h1.8v1.6h-1.8v4.1c0.6-0.3,1.2-0.7,1.8-1.2v2c-0.6,0.4-1.2,0.8-1.8,1.2v5.6
			c0,0.7-0.2,1.2-0.5,1.5s-0.8,0.5-1.6,0.5h-1.1l-0.4-2c0.4,0.1,0.8,0.2,1.1,0.2c0.5,0,0.7-0.2,0.7-0.5v-4.4
			c-0.6,0.3-1.3,0.5-1.9,0.7l-0.3-2.1c0.7-0.1,1.4-0.3,2.1-0.6v-5h-2.1v-1.6L119.3,323.8L119.3,323.8z M129.8,320v0.9h5.2v1.3h-5.2
			v1h6.5c-0.3,1.3-0.7,2.6-1.3,3.9l-1.9-0.5c0.4-0.5,0.7-1.2,1-1.9h-4.6v1l3.2-0.4l0.2,1.3l-3.4,0.4c0,0.3,0.3,0.5,0.8,0.5h4.8v1.4
			h-5.3c-0.6,0-1.1-0.1-1.5-0.3s-0.5-0.6-0.5-1.1v-0.2l-2.2,0.3l-0.2-1.3l2.4-0.3v-1.3H125v3.9c0,1.6-0.1,3.3-0.4,5.1
			c-0.3,1.8-0.8,3.7-1.4,5.5l-1.5-1.3c0.6-1.5,1-3,1.3-4.6c0.2-1.7,0.3-3.2,0.3-4.6v-5.3h4.6V320H129.8z M135.8,329.7v1.5h-4.7
			c-0.1,0.1-0.3,0.3-0.4,0.3c0.4,0.5,0.8,1,1.1,1.4c1-0.3,2-0.8,2.9-1.5l1.1,1.1c-0.5,0.3-1.1,0.6-1.7,0.9c0.3,0.7,0.6,1.4,1,2
			s0.9,1.2,1.6,1.9l-1.1,1.4c-0.8-0.9-1.4-1.7-1.9-2.6c-0.4-0.6-0.7-1.4-0.9-2.2c-0.2,0.1-0.4,0.1-0.5,0.2c0.3,0.8,0.4,1.6,0.4,2.3
			c0,1-0.2,1.7-0.5,2.2c-0.4,0.5-1.4,0.7-3.2,0.7l-0.5-1.6c0,0,0.3,0.1,0.9,0.1c0.6,0,1-0.1,1.2-0.2c0.2-0.2,0.3-0.6,0.3-1.2
			c0-0.1,0-0.3,0-0.4c-0.7,0.5-1.2,0.8-1.8,1.1c-1,0.5-2.2,1-3.6,1.4l-0.8-1.4c1.4-0.4,2.7-0.8,3.8-1.3c0.8-0.4,1.5-0.8,2.1-1.3
			c0-0.1-0.1-0.3-0.1-0.4s-0.1-0.2-0.1-0.3c-0.6,0.4-1.1,0.7-1.6,0.9c-0.8,0.4-1.9,0.8-3.2,1.2l-0.7-1.2c1.3-0.3,2.4-0.7,3.3-1.1
			c0.6-0.3,1.1-0.5,1.6-0.9c-0.1-0.1-0.2-0.3-0.3-0.5c-1.1,0.6-2.4,1.1-3.8,1.5l-0.7-1.3c1.4-0.3,2.6-0.7,3.4-1
			c0.3-0.1,0.5-0.2,0.7-0.3h-3.6v-1.5L135.8,329.7L135.8,329.7z"/>
		<path class="st7" d="M145.7,321.5c-0.9,1.9-1.8,3.4-2.6,4.5c-0.4,0.6-0.9,1.1-1.4,1.7h12.4c-0.3-0.4-0.7-0.8-0.9-1.2
			c-0.9-1.2-1.7-2.6-2.3-4.1h-4v-1.9h5.5c0.8,2.7,2.6,5.2,5.3,7.5l-1.3,1.9c-0.5-0.4-1-0.9-1.4-1.3c-0.2,5.1-0.5,8.1-0.9,9.1
			c-0.5,0.9-1.5,1.4-3.2,1.4c-1.3,0-2.3,0-2.9-0.1l-0.6-2.2c1.1,0.2,2.3,0.3,3.4,0.3c0.7,0,1.1-0.4,1.3-1.2c0.2-0.5,0.3-2.6,0.3-6.2
			h-4.9c-0.5,2.4-1.2,4.2-2.2,5.6c-1.1,1.6-2.8,3-5,4.2l-1.3-1.7c1.9-1,3.4-2.2,4.5-3.5c0.9-1.1,1.6-2.7,2-4.6h-4.4v-1.5
			c-0.6,0.6-1.3,1.2-2,1.8l-1.2-2c1.2-0.7,2.3-1.8,3.3-3.3c0.8-1.1,1.6-2.5,2.4-4.3L145.7,321.5z"/>
		<path class="st7" d="M162.7,324v-4h1.8v4h2.5v1.7h-2.5v0.7c1,1.1,2.1,2.2,3.1,3.5l-1.2,1.7c-0.8-1.2-1.4-2.2-2-3v10.6h-1.8v-10.8
			c-0.1,0.4-0.3,0.8-0.4,1.1c-0.7,1.9-1.6,3.5-2.6,5l-0.8-2.2c1.4-1.9,2.5-4.1,3.4-6.6h-3V324H162.7z M177.8,322.1
			c-2.4,0.8-5,1.2-7.9,1.4v3.2h8.3v1.7h-3.1v10.8h-2v-10.8H170v2.2c0,1.5-0.3,3-0.7,4.7c-0.4,1.4-1,2.7-1.9,4l-1.4-1.5
			c0.7-1,1.2-2.1,1.5-3.1c0.3-1.2,0.5-2.5,0.6-4.1v-8.8c3.5,0,6.4-0.5,8.8-1.6L177.8,322.1z"/>
		<path class="st7" d="M185.1,325.1v1.4c-0.7,1.2-1.5,2.4-2.5,3.6h2.7v1.2c-0.3,1.3-0.6,2.3-0.9,3c0.8,1,1.4,1.6,2,1.8
			c0.5,0.3,1.1,0.5,2,0.6c1,0.2,3,0.3,6,0.3c2.2,0,3.8,0,4.9-0.2l-0.3,2c-5.8,0-9.3-0.1-10.6-0.3c-1.2-0.2-2.1-0.4-2.8-0.8
			c-0.6-0.3-1.3-0.9-2.1-1.9c-0.6,1-1.3,2.1-2.3,3.2l-1.4-1.5c1-1.1,1.8-2,2.2-2.9c0.3-0.5,0.7-1.5,1.2-3h-3.1V330
			c0.8-0.9,1.7-2.1,2.6-3.5H180v-1.6h5.1V325.1z M185,323.1l-1.4,1.4c-0.6-0.9-1.4-2-2.5-3.1l1.3-1.2
			C183.4,321.1,184.3,322.1,185,323.1z M190.1,320.6c-0.3,0.8-0.6,1.6-0.9,2.3h3.7c-0.4-0.7-0.9-1.4-1.5-2.1l1.7-0.5
			c0.7,0.7,1.3,1.4,1.8,2.3l-1.2,0.3h4.7v1.6h-4.2v1.9h3.8v1.6h-3.8v2.1h3.8v1.6h-3.8v2.1h4.3v1.6h-11.3v-8.3
			c-0.3,0.4-0.5,0.8-0.7,1.2l-1.6-1.2c1.4-2.1,2.6-4.6,3.8-7.4L190.1,320.6z M192.4,324.5h-3.5v1.9h3.5V324.5z M192.4,328h-3.5v2.1
			h3.5V328z M192.4,331.7h-3.5v2.1h3.5V331.7z"/>
		<path class="st7" d="M208.7,322c-0.8,0.3-1.6,0.5-2.5,0.7v3h2.6v1.7h-2.6v1c0.9,1,1.9,2,2.9,3.1l-1,1.6c-0.7-1-1.3-1.9-1.8-2.6
			v8.7h-1.8v-8.6c0,0.1-0.1,0.2-0.1,0.3c-0.7,1.7-1.5,3.1-2.5,4.4l-0.7-2.1c1.3-1.6,2.4-3.5,3.3-5.7h-3v-1.7h3V323
			c-0.7,0.1-1.5,0.2-2.3,0.3l-0.3-1.7c2.4-0.2,4.5-0.6,6.3-1.2L208.7,322z M219.7,329.4c-1.3,0.4-2.8,0.6-4.4,0.8v2.2h4.4v1.6h-4.4
			v2.8h5.1v1.7h-12.5v-1.7h5.5V334h-4.3v-1.6h4.3v-2.1c-1.2,0.1-2.6,0.1-3.9,0.1l-0.6-1.7c3.9,0,7.2-0.3,9.9-1L219.7,329.4z
			 M219.3,320.8v6.2h-9.9v-6.2H219.3z M217.4,322.4h-6v2.9h6V322.4z"/>
	</g>
</g>
<polygon class="st7" points="319.2,227.1 284.2,190.6 284.2,263.5 "/>
<g>
	<g>
		<path class="st7" d="M118.2,52.4c-3.1,0-5.5-0.7-7.5-2.7l2.6-2.6c1.3,1.3,3.1,1.7,5,1.7c2.4,0,3.7-0.9,3.7-2.6
			c0-0.7-0.2-1.3-0.6-1.7s-0.9-0.6-1.8-0.7l-2.5-0.3c-1.8-0.3-3.1-0.8-4-1.7c-1-1-1.5-2.3-1.5-4.1c0-3.7,2.7-6.3,7.2-6.3
			c2.8,0,4.9,0.7,6.7,2.4l-2.6,2.5c-1.3-1.2-2.9-1.4-4.2-1.4c-2.1,0-3.2,1.2-3.2,2.6c0,0.5,0.2,1.1,0.6,1.5s1.1,0.7,1.9,0.8l2.4,0.3
			c1.9,0.3,3.1,0.8,3.9,1.6c1.1,1,1.6,2.6,1.6,4.4C125.9,50.2,122.5,52.4,118.2,52.4z"/>
		<path class="st7" d="M137.6,35.2v17.1h-4V35.2h-5.4v-3.6H143v3.6H137.6z"/>
		<path class="st7" d="M146.2,52.3V31.6h13.6v3.6h-9.6V40h8.2v3.6h-8.2v5h9.6v3.6h-13.6V52.3z"/>
		<path class="st7" d="M171.8,44.5h-4v7.8h-4V31.6h8c4.3,0,6.8,2.9,6.8,6.4S176.1,44.5,171.8,44.5z M171.6,35.2h-3.8v5.7h3.8
			c1.8,0,3-1.1,3-2.8C174.6,36.3,173.4,35.2,171.6,35.2z"/>
		<path class="st7" d="M193.6,52.3V35.6l-4.2,3.7v-4.1l4.2-3.7h3.8v20.7L193.6,52.3L193.6,52.3z"/>
	</g>
</g>
<g>
	<path class="st6" d="M426,52.4c-3.1,0-5.5-0.7-7.5-2.7l2.6-2.6c1.3,1.3,3.1,1.7,5,1.7c2.4,0,3.7-0.9,3.7-2.6c0-0.7-0.2-1.3-0.6-1.7
		s-0.9-0.6-1.8-0.7l-2.5-0.3c-1.8-0.3-3.1-0.8-4-1.7c-1-1-1.5-2.3-1.5-4.1c0-3.7,2.7-6.3,7.2-6.3c2.8,0,4.9,0.7,6.7,2.4l-2.6,2.5
		c-1.3-1.2-2.9-1.4-4.2-1.4c-2.1,0-3.2,1.2-3.2,2.6c0,0.5,0.2,1.1,0.6,1.5s1.1,0.7,1.9,0.8l2.4,0.3c1.9,0.3,3.1,0.8,3.9,1.6
		c1.1,1,1.6,2.6,1.6,4.4C433.7,50.2,430.4,52.4,426,52.4z"/>
	<path class="st6" d="M445.4,35.2v17.1h-4V35.2H436v-3.6h14.8v3.6H445.4z"/>
	<path class="st6" d="M454.1,52.3V31.6h13.6v3.6h-9.6V40h8.2v3.6h-8.2v5h9.6v3.6h-13.6V52.3z"/>
	<path class="st6" d="M479.7,44.5h-4v7.8h-4V31.6h8c4.3,0,6.8,2.9,6.8,6.4S483.9,44.5,479.7,44.5z M479.4,35.2h-3.8v5.7h3.8
		c1.8,0,3-1.1,3-2.8C482.4,36.3,481.3,35.2,479.4,35.2z"/>
	<path class="st6" d="M495.9,52.3v-3.4l7.7-9c0.8-0.9,1.1-1.5,1.1-2.5c0-1.5-0.9-2.6-2.5-2.6c-1.2,0-2.5,0.6-2.5,2.6h-3.8
		c0-3.8,2.8-6,6.3-6c3.7,0,6.3,2.3,6.3,6c0,2-0.8,3.1-2.2,4.7l-5.8,6.7h8v3.4L495.9,52.3L495.9,52.3z"/>
</g>
<g>
	<g>
		<path class="st5" d="M736.3,52.4c-3.1,0-5.5-0.7-7.5-2.7l2.6-2.6c1.3,1.3,3.1,1.7,5,1.7c2.4,0,3.7-0.9,3.7-2.6
			c0-0.7-0.2-1.3-0.6-1.7c-0.4-0.4-0.9-0.6-1.8-0.7l-2.5-0.3c-1.8-0.3-3.1-0.8-4-1.7c-1-1-1.5-2.3-1.5-4.1c0-3.7,2.7-6.3,7.2-6.3
			c2.8,0,4.9,0.7,6.7,2.4l-2.6,2.5c-1.3-1.2-2.9-1.4-4.2-1.4c-2.1,0-3.2,1.2-3.2,2.6c0,0.5,0.2,1.1,0.6,1.5c0.4,0.4,1.1,0.7,1.9,0.8
			l2.4,0.3c1.9,0.3,3.1,0.8,3.9,1.6c1.1,1,1.6,2.6,1.6,4.4C743.9,50.2,740.6,52.4,736.3,52.4z"/>
		<path class="st5" d="M755.6,35.2v17.1h-4V35.2h-5.4v-3.6H761v3.6H755.6z"/>
		<path class="st5" d="M764.3,52.3V31.6h13.6v3.6h-9.6V40h8.2v3.6h-8.2v5h9.6v3.6h-13.6V52.3z"/>
		<path class="st5" d="M789.9,44.5h-4v7.8h-4V31.6h8c4.3,0,6.8,2.9,6.8,6.4S794.2,44.5,789.9,44.5z M789.7,35.2h-3.8v5.7h3.8
			c1.8,0,3-1.1,3-2.8C792.7,36.3,791.5,35.2,789.7,35.2z"/>
		<path class="st5" d="M812.2,52.4c-3.4,0-6.5-1.8-6.6-6.1h3.8c0.1,1.9,1.3,2.7,2.8,2.7c1.6,0,2.8-1,2.8-2.9c0-1.7-1-2.8-2.9-2.8
			h-0.6V40h0.6c1.8,0,2.6-1.1,2.6-2.6c0-1.7-1.2-2.6-2.5-2.6c-1.4,0-2.5,0.9-2.6,2.5h-3.8c0.1-3.7,2.8-5.9,6.3-5.9
			c3.7,0,6.3,2.4,6.3,5.9c0,2.2-1,3.5-2.4,4.2c1.5,0.8,2.7,2.2,2.7,4.7C818.8,50.4,815.8,52.4,812.2,52.4z"/>
	</g>
</g>
<g>
	<g>
		<path class="st1" d="M1045.6,52.4c-3.1,0-5.5-0.7-7.5-2.7l2.6-2.6c1.3,1.3,3.1,1.7,5,1.7c2.4,0,3.7-0.9,3.7-2.6
			c0-0.7-0.2-1.3-0.6-1.7s-0.9-0.6-1.8-0.7l-2.5-0.3c-1.8-0.3-3.1-0.8-4-1.7c-1-1-1.5-2.3-1.5-4.1c0-3.7,2.7-6.3,7.2-6.3
			c2.8,0,4.9,0.7,6.7,2.4l-2.6,2.5c-1.3-1.2-2.9-1.4-4.2-1.4c-2.1,0-3.2,1.2-3.2,2.6c0,0.5,0.2,1.1,0.6,1.5s1.1,0.7,1.9,0.8l2.4,0.3
			c1.9,0.3,3.1,0.8,3.9,1.6c1.1,1,1.6,2.6,1.6,4.4C1053.2,50.2,1049.9,52.4,1045.6,52.4z"/>
		<path class="st1" d="M1064.9,35.2v17.1h-4V35.2h-5.4v-3.6h14.8v3.6H1064.9z"/>
		<path class="st1" d="M1073.6,52.3V31.6h13.6v3.6h-9.6V40h8.2v3.6h-8.2v5h9.6v3.6h-13.6V52.3z"/>
		<path class="st1" d="M1099.2,44.5h-4v7.8h-4V31.6h8c4.3,0,6.8,2.9,6.8,6.4S1103.5,44.5,1099.2,44.5z M1099,35.2h-3.8v5.7h3.8
			c1.8,0,3-1.1,3-2.8C1102,36.3,1100.8,35.2,1099,35.2z"/>
		<path class="st1" d="M1126.7,49.3v2.9h-3.6v-2.9h-8.4v-3.6l7.1-14.2h4.1l-7.1,14.2h4.3v-3.9h3.6v3.9h1.9v3.6H1126.7z"/>
	</g>
</g>
<circle class="st7" cx="137.2" cy="132.9" r="45"/>
<circle class="st6" cx="447.2" cy="132.9" r="45"/>
<circle class="st5" cx="757.2" cy="132.9" r="45"/>
<circle class="st1" cx="1067.2" cy="132.9" r="45"/>
<g>
	<path class="st2" d="M447.2,145.2c0.6,0,1.2,0.4,1.4,0.9c4.7,9.8,8.4,12.2,9.1,11.8c0.8-0.3,1.7-4.5-2.3-14.6
		c-0.2-0.6-0.1-1.3,0.4-1.7c0.4-0.5,1.1-0.6,1.7-0.4c10.1,3.9,14.3,3,14.6,2.3c0.3-0.8-1.9-4.5-11.8-9.1c-0.6-0.3-0.9-0.8-0.9-1.4
		c0-0.6,0.4-1.2,0.9-1.4c9.8-4.7,12.1-8.4,11.8-9.1c-0.3-0.8-4.5-1.7-14.6,2.3c-0.6,0.2-1.3,0.1-1.7-0.4c-0.4-0.4-0.6-1.1-0.4-1.7
		c3.9-10.1,3-14.3,2.3-14.6c-0.7-0.3-4.5,1.9-9.1,11.8c-0.3,0.6-0.8,0.9-1.4,0.9s-1.2-0.4-1.4-0.9c-4.7-9.8-8.4-12.1-9.1-11.8
		c-0.8,0.3-1.7,4.5,2.3,14.6c0.2,0.6,0.1,1.3-0.4,1.7c-0.4,0.5-1.1,0.6-1.7,0.4c-10.1-3.9-14.3-3-14.6-2.3
		c-0.3,0.8,1.9,4.5,11.8,9.1c0.6,0.3,0.9,0.8,0.9,1.4c0,0.6-0.4,1.2-0.9,1.4c-9.8,4.7-12.1,8.4-11.8,9.1c0.3,0.7,4.5,1.7,14.6-2.3
		c0.6-0.2,1.3-0.1,1.7,0.4c0.4,0.4,0.6,1.1,0.4,1.7c-3.9,10.1-3,14.3-2.3,14.6c0.8,0.4,4.5-1.9,9.1-11.8
		C446,145.6,446.6,145.2,447.2,145.2 M457.7,161.1c-3,0-6.8-3.8-10.5-10.8c-4.3,8-8.6,11.9-11.9,10.5c-3.2-1.4-3.4-7.1-0.6-15.5
		c-8.4,2.8-14.1,2.6-15.5-0.6c-1.4-3.2,2.5-7.6,10.5-11.9c-8-4.3-11.9-8.6-10.5-11.9c1.4-3.2,7.1-3.4,15.5-0.6
		c-2.8-8.4-2.6-14.1,0.6-15.5s7.6,2.5,11.9,10.5c4.3-8,8.6-11.9,11.9-10.5c3.2,1.4,3.4,7.1,0.6,15.5c8.4-2.8,14.1-2.6,15.5,0.6
		s-2.5,7.6-10.5,11.9c8,4.3,11.9,8.6,10.5,11.9c-1.4,3.2-7.1,3.4-15.5,0.6c2.8,8.4,2.6,14.1-0.6,15.5
		C458.6,161,458.2,161.1,457.7,161.1"/>
	<path class="st2" d="M439.2,141.1L439.2,141.1L439.2,141.1z M447.1,146.2L447.1,146.2c-1.6,0-2.7-2.1-3-5.8c-2.8,2.4-5.1,3.1-6.2,2
		c-1.2-1.1-0.5-3.4,1.9-6.4c-3.8-0.4-5.9-1.6-5.9-3.2c0-1.6,2.1-2.6,5.8-3c-2.4-2.8-3.1-5.1-2-6.2c1.1-1.2,3.4-0.5,6.4,1.9
		c0.4-3.8,1.5-5.9,3.1-5.9l0,0c1.6,0,2.6,2.1,3,5.8c2.8-2.4,5.1-3.1,6.2-2c1.2,1.1,0.5,3.4-1.9,6.4c3.8,0.4,5.9,1.6,5.9,3.2
		c0,1.6-2.1,2.6-5.8,3c2.4,2.8,3.1,5.1,2,6.2c-1.1,1.2-3.4,0.5-6.4-1.9C449.8,144.1,448.7,146.2,447.1,146.2"/>
</g>
<g>
	<polygon class="st2" points="1069.1,132.7 1085,123.5 1069.1,114.3 1053.2,123.5 	"/>
	<polygon class="st2" points="1052.1,143.8 1068,153 1068,134.7 1052.1,125.5 	"/>
	<polygon class="st2" points="1070.3,134.7 1070.3,153 1086.2,143.8 1086.2,125.5 	"/>
	<path class="st2" d="M1101.4,153.1h-14.5c-0.4,0-0.8-0.2-1-0.5l-5.9-7.6c-0.4-0.6-0.3-1.4,0.2-1.8c0.6-0.4,1.4-0.3,1.8,0.2l5.5,7.1
		h13.9c0.7,0,1.3,0.6,1.3,1.3S1102.1,153.1,1101.4,153.1z"/>
	<path class="st2" d="M1058.6,122.8c-0.4,0-0.8-0.2-1-0.5l-5.5-7.1h-13.9c-0.7,0-1.3-0.6-1.3-1.3c0-0.7,0.6-1.3,1.3-1.3h14.5
		c0.4,0,0.8,0.2,1,0.5l5.9,7.6c0.4,0.6,0.3,1.4-0.2,1.8C1059.2,122.8,1058.9,122.8,1058.6,122.8z"/>
	<rect x="1092.7" y="139" class="st2" width="12.6" height="3.2"/>
	<rect x="1034.4" y="117.8" class="st2" width="12.5" height="3.2"/>
	<rect x="1092.7" y="143.9" class="st2" width="8.7" height="3.2"/>
	<rect x="1034.2" y="122.8" class="st2" width="8.7" height="3.2"/>
</g>
<g>
	<rect x="756.1" y="153.4" class="st2" width="2.1" height="4"/>
	<path class="st2" d="M757.2,158.5c-0.8,0-1.4,0.6-1.4,1.4s0.6,1.4,1.4,1.4s1.4-0.6,1.4-1.4S757.9,158.5,757.2,158.5 M757.2,163.3
		c-1.9,0-3.5-1.6-3.5-3.5s1.6-3.5,3.5-3.5s3.5,1.6,3.5,3.5C760.7,161.8,759.1,163.3,757.2,163.3"/>
	<path class="st2" d="M731.5,110.2c-0.2,0-0.5,0.1-0.7,0.3c-0.2,0.2-0.3,0.4-0.3,0.7v2.6c0,0.2,0.1,0.5,0.3,0.7s0.4,0.3,0.7,0.3
		h51.4c0.2,0,0.5-0.1,0.7-0.3c0.2-0.2,0.3-0.4,0.3-0.7v-2.6c0-0.2-0.1-0.5-0.3-0.7s-0.4-0.3-0.7-0.3H731.5z"/>
	<path class="st2" d="M783.8,152.2c0-0.2-0.1-0.5-0.3-0.7s-0.4-0.3-0.7-0.3h-51.4c-0.2,0-0.5,0.1-0.7,0.3s-0.3,0.4-0.3,0.7v0.2
		c0,0.2,0.1,0.5,0.3,0.7s0.4,0.3,0.7,0.3h51.4c0.2,0,0.5-0.1,0.7-0.3s0.3-0.4,0.3-0.7V152.2z"/>
	<path class="st2" d="M733.6,116.9v32.5h47.2v-32.5C780.8,116.9,733.6,116.9,733.6,116.9z M765.5,120.2h6.3v22.6h-6.3V120.2z
		 M757.7,126.4h6.3v16.4h-6.3V126.4z M749.9,123.8h6.3v19h-6.3V123.8z M742.1,128.5h6.3v14.3h-6.3V128.5z M771.9,145.5h-29.8v-2
		h29.8V145.5z"/>
</g>
<path class="st2" d="M151.1,105.9c0-0.3-0.3-0.6-0.6-0.6c-6.9-0.3-27.1-0.3-28.7-0.3c-1.3-0.1-1,1.1-1,1.4
	c0.1,4.8,0.1,18.9,0.2,21.2c0.1,1,0.2,1.5,1.3,1.8c2,0.5,22.2,0.4,27.2,0.5c1.6,0,1.5-0.4,1.6-3.1
	C151.3,115.8,150.9,114,151.1,105.9"/>
<path class="st2" d="M161,143.8h-0.4v-10H145v3.1h-0.4v-3.1h-17.3v3.1h-0.4v-3.1h-15.6v9h-0.4v-9.4H161V143.8z M136.1,133.4h-0.4
	v-3.5h0.4V133.4z"/>
<path class="st2" d="M133.7,136.4c0-0.2-0.1-0.3-0.2-0.3c-2.5-0.2-9.9-0.2-10.5-0.2c-0.5,0-0.4,0.7-0.4,0.8c0,2.7,0,9,0.1,10.3
	c0,0.6,0.1,0.9,0.5,1c0.7,0.3,8.1,0.2,10,0.3c0.6,0,0.5-0.2,0.6-1.8C133.8,140.3,133.7,141,133.7,136.4"/>
<path class="st2" d="M150.1,136.6c0-0.2-0.1-0.3-0.2-0.3c-2.5-0.2-9.9-0.2-10.5-0.2c-0.5,0-0.4,0.7-0.4,0.8c0,2.7,0,9,0.1,10.3
	c0,0.6,0.1,0.9,0.5,1c0.7,0.3,8.1,0.2,10,0.3c0.6,0,0.5-0.2,0.6-1.8C150.2,140.5,150,141.2,150.1,136.6"/>
<path class="st2" d="M166.4,144.1c0-0.2-0.1-0.3-0.2-0.3c-2.5-0.2-9.9-0.2-10.5-0.2c-0.5,0-0.4,0.7-0.4,0.8c0,2.7,0,9,0.1,10.3
	c0,0.6,0.1,0.9,0.5,1c0.7,0.3,8.1,0.2,10,0.3c0.6,0,0.5-0.2,0.6-1.8C166.5,147.9,166.3,148.7,166.4,144.1"/>
<path class="st2" d="M119.2,143.3c0-0.2-0.1-0.3-0.2-0.3c-2.5-0.2-9.9-0.2-10.5-0.2c-0.5,0-0.4,0.7-0.4,0.8c0,2.7,0,9,0.1,10.3
	c0,0.6,0.1,0.9,0.5,1c0.7,0.3,8.1,0.2,10,0.3c0.6,0,0.5-0.2,0.6-1.8C119.3,147.1,119.1,147.9,119.2,143.3"/>
</svg>
